<svg id="svg" version="1.1" xmlns="http://www.w3.org/2000/svg" xmlns:xlink="http://www.w3.org/1999/xlink" viewBox="0, 0, 400,132"><g id="svgg"><path id="path0" d="M56.667 0.167 C 56.667 0.269,55.810 0.333,54.430 0.333 C 52.258 0.333,51.453 0.431,51.811 0.653 C 52.286 0.946,51.643 1.158,50.202 1.181 C 48.903 1.201,48.666 1.247,48.664 1.478 C 48.662 1.715,48.640 1.717,48.497 1.500 C 48.352 1.278,48.315 1.278,48.169 1.500 C 48.079 1.637,48.004 1.679,48.003 1.593 C 48.001 1.507,47.906 1.561,47.792 1.714 C 47.641 1.915,47.295 2.000,46.542 2.021 C 45.633 2.046,45.527 2.082,45.709 2.302 C 45.891 2.523,45.869 2.529,45.532 2.349 C 45.193 2.169,45.153 2.180,45.198 2.447 C 45.242 2.705,45.100 2.763,44.250 2.834 C 43.007 2.938,42.780 3.074,42.897 3.643 C 42.946 3.885,42.946 3.990,42.896 3.875 C 42.845 3.758,42.514 3.667,42.143 3.667 C 41.657 3.667,41.514 3.722,41.605 3.875 C 41.704 4.039,41.678 4.041,41.483 3.883 C 41.224 3.674,40.469 3.648,40.595 3.853 C 40.804 4.190,40.456 4.421,39.830 4.362 C 39.400 4.321,39.167 4.367,39.167 4.492 C 39.167 4.599,39.096 4.642,39.009 4.589 C 38.922 4.535,38.880 4.643,38.916 4.829 C 38.971 5.114,38.894 5.167,38.425 5.167 C 38.085 5.167,37.832 5.264,37.773 5.417 C 37.720 5.554,37.591 5.667,37.485 5.667 C 37.348 5.667,37.353 5.594,37.503 5.413 C 37.679 5.201,37.669 5.176,37.441 5.264 C 37.244 5.340,37.189 5.513,37.242 5.893 C 37.283 6.181,37.277 6.323,37.228 6.208 C 37.123 5.962,36.167 5.924,36.167 6.167 C 36.167 6.258,36.054 6.333,35.917 6.333 C 35.779 6.333,35.667 6.446,35.667 6.583 C 35.667 6.745,35.504 6.833,35.207 6.833 C 34.949 6.833,34.552 7.014,34.304 7.244 C 34.047 7.482,33.600 7.681,33.239 7.718 C 32.896 7.753,32.527 7.905,32.417 8.055 C 32.229 8.312,31.789 8.459,31.125 8.488 C 30.965 8.494,30.833 8.583,30.833 8.684 C 30.833 8.788,30.962 8.824,31.125 8.767 C 31.401 8.671,31.401 8.678,31.128 8.891 C 30.969 9.015,30.891 9.169,30.956 9.234 C 31.020 9.298,30.943 9.301,30.784 9.240 C 30.434 9.106,29.952 9.468,30.071 9.777 C 30.125 9.920,30.023 10.006,29.786 10.016 C 28.771 10.062,28.607 10.101,28.535 10.315 C 28.481 10.475,28.528 10.504,28.687 10.408 C 28.882 10.290,28.882 10.312,28.688 10.551 C 28.562 10.706,28.318 10.833,28.146 10.833 C 27.974 10.833,27.824 10.908,27.813 11.000 C 27.771 11.331,27.743 11.420,27.613 11.625 C 27.540 11.740,27.335 11.833,27.157 11.833 C 26.979 11.833,26.833 11.946,26.833 12.083 C 26.833 12.258,26.657 12.333,26.250 12.333 C 25.929 12.333,25.667 12.406,25.667 12.495 C 25.667 12.584,25.535 12.609,25.375 12.552 C 25.215 12.494,25.137 12.506,25.202 12.579 C 25.403 12.800,24.999 13.369,24.719 13.261 C 24.539 13.192,24.492 13.238,24.560 13.415 C 24.613 13.553,24.589 13.667,24.506 13.667 C 24.423 13.667,24.308 13.817,24.250 14.000 C 24.192 14.183,24.037 14.333,23.905 14.333 C 23.774 14.333,23.667 14.434,23.667 14.557 C 23.667 14.679,23.479 14.865,23.250 14.970 C 23.021 15.074,22.833 15.274,22.833 15.413 C 22.833 15.641,22.728 15.698,22.390 15.652 C 22.329 15.644,22.213 15.756,22.132 15.902 C 22.050 16.047,21.893 16.166,21.783 16.164 C 21.661 16.163,21.680 16.099,21.833 16.000 C 21.971 15.911,22.046 15.832,22.000 15.823 C 21.954 15.815,21.785 15.783,21.625 15.752 C 21.305 15.691,21.238 15.985,21.500 16.300 C 21.619 16.443,21.612 16.455,21.474 16.341 C 21.117 16.046,20.254 16.692,20.417 17.134 C 20.460 17.253,20.428 17.309,20.345 17.257 C 20.261 17.206,20.042 17.356,19.857 17.591 C 19.672 17.827,19.378 18.030,19.205 18.043 C 19.031 18.056,18.889 18.161,18.889 18.276 C 18.889 18.391,18.970 18.444,19.069 18.395 C 19.169 18.345,18.966 18.576,18.620 18.909 C 18.250 19.264,18.037 19.597,18.105 19.716 C 18.168 19.826,18.164 19.867,18.096 19.806 C 17.913 19.641,17.302 20.314,17.436 20.532 C 17.511 20.653,17.475 20.671,17.335 20.584 C 17.173 20.484,17.139 20.557,17.199 20.874 C 17.269 21.239,17.226 21.292,16.890 21.255 C 16.467 21.209,16.396 21.330,16.681 21.615 C 16.812 21.745,16.804 21.832,16.655 21.924 C 16.522 22.006,16.491 21.983,16.567 21.859 C 16.633 21.753,16.612 21.667,16.521 21.667 C 16.430 21.667,16.308 21.817,16.250 22.000 C 16.192 22.183,16.037 22.333,15.905 22.333 C 15.774 22.333,15.667 22.434,15.667 22.557 C 15.667 22.679,15.479 22.865,15.250 22.970 C 15.021 23.074,14.833 23.274,14.833 23.413 C 14.833 23.553,14.758 23.676,14.667 23.688 C 14.575 23.699,14.406 23.719,14.292 23.733 C 14.177 23.746,14.105 23.887,14.132 24.045 C 14.161 24.215,14.076 24.333,13.924 24.333 C 13.782 24.333,13.667 24.406,13.667 24.495 C 13.667 24.584,13.551 24.612,13.410 24.558 C 13.269 24.503,13.165 24.525,13.180 24.605 C 13.285 25.184,13.141 26.186,12.960 26.125 C 12.728 26.048,12.333 26.381,12.333 26.655 C 12.333 26.753,12.221 26.833,12.083 26.833 C 11.946 26.833,11.824 26.908,11.813 27.000 C 11.801 27.092,11.773 27.242,11.750 27.333 C 11.727 27.425,11.699 27.688,11.688 27.917 C 11.675 28.167,11.567 28.333,11.417 28.333 C 11.279 28.333,11.167 28.413,11.167 28.510 C 11.167 28.607,11.096 28.642,11.009 28.589 C 10.922 28.535,10.880 28.643,10.916 28.829 C 10.962 29.068,10.892 29.167,10.678 29.167 C 10.362 29.167,9.969 29.526,10.014 29.774 C 10.120 30.365,9.961 31.009,9.670 31.165 C 9.390 31.315,9.357 31.297,9.447 31.046 C 9.505 30.883,9.498 30.799,9.431 30.860 C 9.321 30.958,9.215 31.323,9.179 31.726 C 9.172 31.805,9.060 31.828,8.929 31.778 C 8.561 31.637,8.289 32.101,8.364 32.741 C 8.401 33.060,8.397 33.286,8.354 33.243 C 8.159 33.048,7.667 33.768,7.667 34.249 C 7.667 34.653,7.567 34.825,7.250 34.970 C 6.920 35.120,6.833 35.282,6.833 35.746 C 6.833 36.137,6.756 36.333,6.601 36.333 C 6.341 36.333,6.115 36.782,6.259 37.015 C 6.311 37.098,6.274 37.167,6.177 37.167 C 6.079 37.167,6.000 37.389,6.000 37.661 C 6.000 38.054,5.943 38.134,5.723 38.050 C 5.520 37.972,5.482 38.003,5.583 38.167 C 5.685 38.331,5.646 38.361,5.437 38.281 C 5.260 38.213,5.163 38.249,5.180 38.378 C 5.270 39.077,5.139 39.808,4.908 39.897 C 4.732 39.964,4.689 39.930,4.773 39.790 C 4.855 39.653,4.802 39.661,4.615 39.812 C 4.415 39.975,4.333 40.296,4.333 40.923 C 4.333 41.960,4.218 42.333,3.899 42.333 C 3.726 42.333,3.667 42.590,3.667 43.333 C 3.667 44.111,3.611 44.333,3.417 44.333 C 3.279 44.333,3.167 44.413,3.167 44.510 C 3.167 44.607,3.109 44.651,3.039 44.607 C 2.968 44.564,2.889 45.024,2.862 45.630 C 2.808 46.835,2.736 47.063,2.463 46.894 C 2.358 46.829,2.329 46.859,2.394 46.964 C 2.456 47.064,2.385 47.214,2.237 47.298 C 2.025 47.416,1.979 47.652,2.025 48.378 C 2.057 48.888,2.046 49.303,2.000 49.300 C 1.375 49.254,0.993 49.840,1.361 50.283 C 1.492 50.441,1.486 50.500,1.341 50.500 C 1.198 50.500,1.157 50.894,1.196 51.898 C 1.249 53.262,1.241 53.295,0.875 53.254 C 0.466 53.209,0.399 53.333,0.681 53.615 C 0.812 53.745,0.804 53.832,0.655 53.924 C 0.522 54.006,0.491 53.983,0.567 53.859 C 0.633 53.753,0.607 53.667,0.510 53.667 C 0.216 53.667,0.272 58.795,0.567 58.863 C 0.767 58.909,0.767 58.947,0.567 59.132 C 0.375 59.308,0.333 59.301,0.333 59.090 C 0.333 58.949,0.258 58.833,0.167 58.833 C 0.060 58.833,-0.000 60.280,-0.000 62.841 L -0.000 66.849 4.506 66.810 C 8.143 66.778,8.995 66.728,8.928 66.552 C 8.882 66.432,8.916 66.333,9.005 66.333 C 9.102 66.333,9.167 65.305,9.167 63.750 L 9.167 61.167 9.583 61.167 C 10.031 61.167,10.130 60.863,9.793 60.526 C 9.628 60.362,9.637 60.287,9.835 60.162 C 10.001 60.057,10.014 60.004,9.875 60.003 C 9.760 60.001,9.667 59.921,9.667 59.823 C 9.667 59.726,9.735 59.689,9.818 59.740 C 9.901 59.792,9.929 59.683,9.881 59.499 C 9.738 58.949,10.017 55.258,10.182 55.519 C 10.303 55.710,10.329 55.711,10.331 55.524 C 10.332 55.399,10.436 55.337,10.562 55.385 C 10.743 55.455,10.796 55.164,10.821 53.957 C 10.845 52.751,10.909 52.396,11.134 52.225 C 11.399 52.024,11.399 52.010,11.135 52.005 C 10.980 52.002,10.811 51.932,10.759 51.848 C 10.707 51.764,10.795 51.715,10.954 51.738 C 11.317 51.792,11.849 51.311,11.540 51.208 C 11.426 51.170,11.333 51.066,11.333 50.976 C 11.333 50.887,11.408 50.860,11.500 50.917 C 11.604 50.981,11.667 50.641,11.667 50.010 C 11.667 49.454,11.723 49.009,11.792 49.020 C 12.202 49.084,12.286 48.916,12.314 47.975 C 12.349 46.811,12.428 46.604,12.785 46.741 C 12.960 46.808,13.008 46.760,12.940 46.585 C 12.887 46.447,12.916 46.333,13.005 46.333 C 13.094 46.333,13.167 45.883,13.167 45.333 C 13.167 44.365,13.181 44.333,13.604 44.333 C 13.930 44.333,13.999 44.280,13.877 44.125 C 13.624 43.804,13.814 42.670,14.102 42.780 C 14.563 42.957,14.857 42.485,14.812 41.641 C 14.789 41.201,14.828 40.783,14.899 40.712 C 14.970 40.641,15.003 40.691,14.972 40.823 C 14.942 40.955,15.038 41.090,15.187 41.123 C 15.526 41.198,15.756 40.660,15.464 40.474 C 15.294 40.366,15.296 40.338,15.478 40.336 C 15.629 40.334,15.679 40.197,15.627 39.925 C 15.585 39.700,15.595 39.522,15.650 39.528 C 15.968 39.564,16.385 39.461,16.208 39.390 C 16.094 39.343,16.000 39.232,16.000 39.143 C 16.000 39.054,16.070 39.024,16.156 39.077 C 16.242 39.130,16.336 38.891,16.365 38.545 C 16.411 37.986,16.463 37.921,16.833 37.959 C 17.158 37.992,17.195 37.965,17.000 37.836 C 16.822 37.719,16.812 37.671,16.966 37.669 C 17.084 37.668,17.169 37.573,17.154 37.458 C 17.049 36.648,17.175 36.333,17.604 36.333 C 17.970 36.333,18.008 36.293,17.837 36.088 C 17.674 35.892,17.687 35.789,17.900 35.576 C 18.098 35.378,18.167 35.366,18.169 35.530 C 18.171 35.705,18.201 35.703,18.317 35.520 C 18.397 35.394,18.548 35.343,18.652 35.408 C 18.756 35.472,18.831 35.463,18.818 35.387 C 18.713 34.786,18.864 34.000,19.083 34.000 C 19.221 34.000,19.333 33.883,19.333 33.740 C 19.333 33.584,19.411 33.529,19.528 33.601 C 19.657 33.680,19.689 33.632,19.623 33.459 C 19.554 33.280,19.642 33.167,19.901 33.102 C 20.199 33.027,20.284 32.882,20.301 32.413 C 20.325 31.777,20.623 31.346,20.960 31.459 C 21.087 31.501,21.167 31.370,21.167 31.115 C 21.167 30.888,21.283 30.658,21.425 30.603 C 21.574 30.546,21.641 30.574,21.582 30.669 C 21.526 30.759,21.558 30.833,21.654 30.833 C 21.749 30.833,21.874 30.646,21.932 30.417 C 21.989 30.188,22.122 29.998,22.226 29.996 C 22.331 29.994,22.536 29.750,22.682 29.455 C 22.827 29.159,23.090 28.899,23.265 28.876 C 23.563 28.839,23.562 28.847,23.250 29.000 L 22.917 29.164 23.250 29.121 C 23.529 29.085,23.583 28.952,23.583 28.303 C 23.583 27.876,23.621 27.530,23.667 27.534 C 24.005 27.558,24.378 27.458,24.208 27.390 C 24.094 27.343,24.000 27.232,24.000 27.143 C 24.000 27.054,24.067 27.022,24.149 27.073 C 24.231 27.123,24.344 27.045,24.401 26.898 C 24.457 26.752,24.608 26.672,24.736 26.722 C 24.884 26.779,25.006 26.663,25.071 26.406 C 25.144 26.116,25.288 26.000,25.575 26.000 C 25.891 26.000,25.989 25.901,26.031 25.542 C 26.069 25.212,26.190 25.068,26.463 25.029 C 26.710 24.994,26.826 24.878,26.796 24.696 C 26.766 24.514,26.883 24.398,27.133 24.362 C 27.418 24.322,27.504 24.215,27.467 23.947 C 27.439 23.749,27.510 23.577,27.625 23.564 C 28.346 23.486,28.404 23.469,28.208 23.390 C 28.094 23.343,28.000 23.232,28.000 23.143 C 28.000 23.054,28.069 23.023,28.152 23.075 C 28.236 23.126,28.330 23.097,28.361 23.008 C 28.392 22.920,28.698 22.829,29.042 22.807 C 29.385 22.784,29.667 22.701,29.667 22.623 C 29.667 22.544,29.738 22.524,29.825 22.578 C 29.911 22.632,29.953 22.524,29.918 22.338 C 29.879 22.135,29.941 22.000,30.074 22.000 C 30.195 22.000,30.418 21.813,30.568 21.583 C 30.718 21.354,30.997 21.167,31.188 21.167 C 31.434 21.167,31.507 21.091,31.436 20.908 C 31.372 20.740,31.404 20.691,31.528 20.767 C 31.656 20.846,31.690 20.775,31.632 20.554 C 31.561 20.281,31.614 20.235,31.926 20.294 C 32.224 20.351,32.318 20.283,32.361 19.975 C 32.410 19.630,32.506 19.583,33.167 19.583 C 33.861 19.583,33.916 19.552,33.913 19.157 C 33.910 18.846,33.993 18.734,34.224 18.741 C 34.398 18.746,34.624 18.600,34.728 18.417 C 34.832 18.233,34.934 18.053,34.956 18.017 C 34.977 17.980,35.277 17.938,35.622 17.923 C 36.131 17.902,36.260 17.828,36.303 17.531 C 36.333 17.330,36.507 17.085,36.691 16.987 C 36.875 16.888,36.991 16.716,36.947 16.603 C 36.871 16.405,37.490 16.279,38.500 16.288 C 38.729 16.290,38.831 16.260,38.726 16.221 C 38.621 16.182,38.572 16.009,38.617 15.837 C 38.666 15.651,38.795 15.560,38.934 15.613 C 39.064 15.663,39.450 15.648,39.793 15.580 C 40.136 15.513,40.323 15.423,40.208 15.381 C 40.094 15.340,40.000 15.232,40.000 15.143 C 40.000 15.054,40.075 15.027,40.167 15.083 C 40.258 15.140,40.333 15.107,40.333 15.010 C 40.333 14.913,40.543 14.833,40.800 14.833 C 41.057 14.833,41.368 14.740,41.491 14.625 C 41.671 14.458,41.692 14.458,41.598 14.625 C 41.533 14.740,41.558 14.833,41.654 14.833 C 41.749 14.833,41.873 14.650,41.929 14.426 C 42.011 14.100,42.154 14.008,42.641 13.967 C 43.107 13.929,43.244 13.847,43.226 13.619 C 43.206 13.368,43.243 13.355,43.465 13.536 C 43.690 13.718,43.713 13.707,43.620 13.458 C 43.506 13.155,43.976 13.081,45.471 13.164 C 45.963 13.191,46.020 13.151,45.971 12.806 C 45.921 12.450,45.986 12.412,46.717 12.366 C 47.422 12.320,47.512 12.273,47.467 11.965 C 47.419 11.634,47.483 11.618,48.708 11.652 C 49.682 11.679,50.001 11.634,50.003 11.469 C 50.004 11.309,50.048 11.317,50.167 11.500 C 50.291 11.693,50.329 11.698,50.331 11.524 C 50.332 11.383,50.436 11.337,50.607 11.403 C 50.846 11.494,50.851 11.472,50.649 11.222 C 50.495 11.032,50.487 10.978,50.625 11.061 C 50.740 11.130,50.833 11.107,50.833 11.010 C 50.833 10.911,51.170 10.833,51.594 10.833 C 52.013 10.833,52.509 10.751,52.698 10.650 C 52.947 10.517,53.009 10.517,52.927 10.650 C 52.865 10.751,52.861 10.833,52.918 10.833 C 52.975 10.833,53.176 10.751,53.364 10.650 C 53.613 10.517,53.676 10.517,53.594 10.650 C 53.531 10.751,53.560 10.833,53.657 10.833 C 53.961 10.833,53.849 10.334,53.542 10.323 C 53.311 10.314,53.325 10.282,53.611 10.167 C 53.810 10.086,54.981 9.998,56.214 9.970 C 58.271 9.922,58.468 9.891,58.603 9.584 C 58.798 9.141,69.448 8.960,69.279 9.402 C 69.228 9.534,69.309 9.742,69.459 9.863 C 69.690 10.050,69.709 10.046,69.583 9.833 C 69.455 9.616,69.474 9.614,69.725 9.818 C 69.962 10.011,70.050 10.014,70.215 9.835 C 70.373 9.665,70.372 9.643,70.208 9.735 C 70.094 9.800,70.000 9.774,70.000 9.677 C 70.000 9.447,70.218 9.451,70.452 9.685 C 70.571 9.805,71.383 9.861,72.735 9.844 C 74.503 9.821,74.833 9.856,74.833 10.067 C 74.833 10.520,75.885 10.868,77.072 10.806 C 77.736 10.772,78.153 10.815,78.138 10.917 C 78.100 11.179,78.353 11.667,78.528 11.667 C 78.615 11.667,78.633 11.573,78.569 11.458 C 78.475 11.292,78.496 11.292,78.676 11.458 C 78.799 11.573,79.204 11.667,79.577 11.667 C 80.042 11.667,80.310 11.758,80.436 11.960 C 80.573 12.178,80.887 12.266,81.678 12.305 C 82.940 12.367,82.992 12.392,82.887 12.875 C 82.821 13.176,82.840 13.201,82.983 13.000 C 83.104 12.830,83.162 12.817,83.164 12.958 C 83.166 13.073,83.246 13.167,83.343 13.167 C 83.440 13.167,83.467 13.073,83.402 12.958 C 83.308 12.792,83.329 12.792,83.509 12.958 C 83.632 13.073,83.860 13.167,84.015 13.167 C 84.170 13.167,84.340 13.338,84.393 13.547 C 84.479 13.891,84.597 13.931,85.619 13.968 C 86.241 13.990,86.775 14.081,86.805 14.169 C 86.892 14.423,87.971 14.880,88.240 14.777 C 88.403 14.714,88.452 14.763,88.390 14.925 C 88.339 15.058,88.385 15.167,88.492 15.167 C 88.599 15.167,88.633 15.253,88.567 15.359 C 88.496 15.474,88.521 15.506,88.629 15.440 C 88.729 15.378,88.858 15.405,88.917 15.500 C 88.975 15.595,89.088 15.632,89.167 15.583 C 89.246 15.535,89.357 15.571,89.415 15.664 C 89.473 15.757,89.453 15.833,89.371 15.833 C 89.289 15.833,89.222 15.932,89.222 16.053 C 89.222 16.174,89.376 16.262,89.563 16.248 C 90.371 16.189,90.918 16.421,90.865 16.800 C 90.825 17.079,90.897 17.167,91.166 17.167 C 91.401 17.167,91.480 17.096,91.402 16.958 C 91.308 16.792,91.329 16.792,91.509 16.958 C 91.632 17.073,91.868 17.167,92.033 17.167 C 92.198 17.167,92.333 17.279,92.333 17.417 C 92.333 17.554,92.413 17.667,92.510 17.667 C 92.607 17.667,92.644 17.735,92.593 17.818 C 92.542 17.901,92.650 17.930,92.833 17.882 C 93.151 17.798,93.243 17.944,93.183 18.439 C 93.171 18.544,93.278 18.674,93.422 18.729 C 93.599 18.797,93.646 18.762,93.568 18.623 C 93.477 18.462,93.500 18.462,93.676 18.625 C 93.799 18.740,94.143 18.833,94.440 18.833 C 94.884 18.833,94.970 18.891,94.919 19.153 C 94.857 19.478,95.236 19.746,95.515 19.574 C 95.662 19.483,95.732 19.710,95.681 20.116 C 95.667 20.230,95.797 20.289,95.984 20.253 C 96.233 20.205,96.338 20.307,96.419 20.678 C 96.518 21.129,96.584 21.167,97.263 21.167 C 97.980 21.167,98.112 21.290,98.020 21.875 C 98.009 21.944,98.160 22.000,98.357 22.000 C 98.553 22.000,98.804 22.124,98.915 22.275 C 99.035 22.440,99.201 22.498,99.326 22.421 C 99.492 22.319,99.489 22.259,99.309 22.133 C 99.121 22.001,99.122 21.985,99.316 22.037 C 99.443 22.071,99.571 22.316,99.599 22.580 C 99.627 22.845,99.768 23.127,99.912 23.207 C 100.056 23.288,100.144 23.405,100.108 23.469 C 100.072 23.532,100.231 23.771,100.460 24.000 C 100.689 24.229,100.826 24.324,100.763 24.210 C 100.687 24.072,100.735 24.037,100.908 24.103 C 101.146 24.194,101.236 24.391,101.186 24.708 C 101.176 24.777,101.223 24.824,101.292 24.814 C 101.626 24.761,101.725 24.856,101.500 25.016 C 101.302 25.156,101.338 25.179,101.674 25.126 C 102.050 25.067,102.095 25.113,102.066 25.530 C 102.028 26.077,102.099 26.103,102.570 25.713 C 102.761 25.555,102.829 25.527,102.721 25.650 C 102.503 25.900,102.835 26.357,103.375 26.551 C 103.535 26.609,103.667 26.763,103.667 26.894 C 103.667 27.024,103.784 27.176,103.927 27.231 C 104.071 27.286,104.155 27.388,104.115 27.457 C 104.076 27.527,104.231 27.771,104.460 28.000 C 104.689 28.229,104.826 28.324,104.763 28.210 C 104.687 28.072,104.735 28.037,104.908 28.103 C 105.146 28.194,105.236 28.391,105.186 28.708 C 105.176 28.777,105.223 28.824,105.292 28.814 C 105.621 28.762,105.725 28.855,105.500 29.000 C 105.296 29.132,105.315 29.162,105.605 29.164 C 105.800 29.166,106.053 29.279,106.167 29.417 C 106.310 29.589,106.316 29.667,106.187 29.667 C 106.084 29.667,106.000 29.854,106.000 30.083 C 106.000 30.343,106.094 30.500,106.250 30.500 C 106.388 30.500,106.500 30.575,106.500 30.667 C 106.500 30.758,106.608 30.833,106.740 30.833 C 106.888 30.833,106.957 30.957,106.919 31.153 C 106.857 31.478,107.236 31.746,107.515 31.574 C 107.662 31.483,107.732 31.710,107.681 32.116 C 107.667 32.232,107.798 32.289,107.995 32.251 C 108.248 32.202,108.338 32.278,108.353 32.551 C 108.363 32.752,108.389 32.992,108.411 33.083 C 108.432 33.175,108.461 33.427,108.475 33.644 C 108.495 33.967,108.573 34.025,108.901 33.962 C 109.241 33.897,109.292 33.942,109.234 34.258 C 109.192 34.489,109.265 34.669,109.425 34.730 C 109.601 34.798,109.644 34.763,109.560 34.623 C 109.462 34.460,109.489 34.460,109.692 34.624 C 109.832 34.737,109.984 34.794,110.028 34.750 C 110.072 34.705,110.077 34.885,110.038 35.148 C 110.000 35.412,110.050 35.678,110.151 35.740 C 110.406 35.898,110.381 36.214,110.125 36.066 C 110.004 35.997,109.975 36.010,110.056 36.098 C 110.132 36.182,110.263 36.259,110.347 36.271 C 110.431 36.282,110.566 36.301,110.646 36.313 C 110.726 36.324,110.838 36.563,110.894 36.844 C 110.964 37.197,111.061 37.316,111.206 37.229 C 111.368 37.132,111.366 37.165,111.200 37.370 C 111.055 37.549,111.041 37.672,111.159 37.745 C 111.255 37.804,111.333 37.759,111.333 37.645 C 111.333 37.530,111.437 37.578,111.565 37.753 C 111.692 37.927,111.759 38.166,111.714 38.285 C 111.667 38.406,111.748 38.500,111.899 38.500 C 112.046 38.500,112.167 38.579,112.167 38.677 C 112.167 38.774,112.224 38.817,112.295 38.774 C 112.365 38.730,112.396 38.974,112.364 39.315 C 112.321 39.760,112.388 40.003,112.601 40.176 C 112.779 40.321,112.848 40.334,112.773 40.210 C 112.689 40.070,112.732 40.036,112.908 40.103 C 113.071 40.166,113.167 40.411,113.167 40.768 C 113.167 41.219,113.233 41.333,113.495 41.333 C 113.727 41.333,113.793 41.411,113.720 41.600 C 113.664 41.747,113.708 41.923,113.818 41.991 C 113.930 42.059,114.022 42.486,114.025 42.948 C 114.033 43.913,114.153 44.174,114.606 44.208 C 114.857 44.227,114.918 44.331,114.871 44.658 C 114.787 45.230,115.098 46.000,115.413 46.000 C 115.642 46.000,115.795 47.208,115.681 48.116 C 115.667 48.232,115.798 48.289,115.995 48.251 C 116.307 48.191,116.333 48.270,116.333 49.275 C 116.333 50.211,116.379 50.376,116.655 50.449 C 117.094 50.563,117.149 50.771,117.182 52.429 C 117.199 53.299,117.266 53.778,117.352 53.642 C 117.482 53.437,117.569 53.560,117.520 53.875 C 117.509 53.944,117.613 54.000,117.750 54.000 C 117.948 54.000,118.000 54.241,118.000 55.167 C 118.000 56.300,118.012 56.333,118.417 56.333 C 118.750 56.333,118.833 56.417,118.833 56.750 C 118.833 57.148,118.689 57.244,118.191 57.175 C 118.002 57.149,118.002 57.183,118.191 57.388 C 118.315 57.522,118.488 57.589,118.574 57.536 C 118.661 57.483,118.571 57.667,118.373 57.944 C 118.006 58.459,118.109 58.833,118.617 58.833 C 118.788 58.833,118.833 59.615,118.833 62.571 L 118.833 66.309 119.359 66.571 C 120.077 66.929,127.579 66.953,128.046 66.598 C 128.418 66.316,128.485 56.836,128.115 56.831 C 127.979 56.829,127.987 56.784,128.139 56.687 C 128.427 56.505,127.958 56.296,127.583 56.440 C 127.401 56.510,127.333 56.419,127.333 56.101 C 127.333 55.862,127.412 55.667,127.509 55.667 C 127.796 55.667,127.643 51.797,127.352 51.700 C 127.192 51.647,127.163 51.694,127.259 51.853 C 127.376 52.049,127.355 52.049,127.115 51.855 C 126.894 51.675,126.833 51.345,126.833 50.313 C 126.833 49.453,126.769 49.000,126.646 49.000 C 126.520 49.000,126.529 48.916,126.674 48.741 C 126.793 48.598,126.821 48.497,126.737 48.517 C 126.209 48.640,126.000 48.281,126.000 47.250 C 126.000 46.440,125.939 46.179,125.731 46.099 C 125.563 46.034,125.494 45.874,125.547 45.670 C 125.594 45.491,125.584 45.351,125.525 45.359 C 125.158 45.406,125.074 45.275,125.135 44.750 C 125.182 44.346,125.136 44.167,124.985 44.167 C 124.815 44.167,124.811 44.122,124.967 43.967 C 125.327 43.607,125.206 43.016,124.750 42.902 C 124.337 42.798,124.302 42.698,124.289 41.569 C 124.286 41.307,124.199 41.239,123.934 41.289 C 123.612 41.351,123.586 41.288,123.614 40.508 C 123.633 39.992,123.581 39.700,123.483 39.761 C 123.383 39.822,123.363 39.691,123.431 39.420 C 123.521 39.061,123.476 38.962,123.187 38.887 C 122.895 38.811,122.833 38.668,122.833 38.075 C 122.833 37.362,122.451 36.971,122.017 37.239 C 121.933 37.291,121.904 37.183,121.952 36.999 C 122.000 36.815,121.952 36.559,121.845 36.431 C 121.712 36.270,121.706 36.162,121.825 36.088 C 122.139 35.894,122.009 35.667,121.583 35.667 C 121.174 35.667,121.084 35.444,121.124 34.530 C 121.130 34.397,121.025 34.348,120.858 34.406 C 120.658 34.475,120.674 34.427,120.917 34.228 C 121.141 34.044,121.163 33.985,120.985 34.045 C 120.577 34.184,120.348 33.956,120.303 33.368 C 120.281 33.074,120.185 32.832,120.090 32.831 C 119.994 32.829,120.017 32.765,120.139 32.687 C 120.417 32.511,119.964 32.294,119.605 32.431 C 119.325 32.539,119.120 31.889,119.393 31.757 C 119.498 31.707,119.368 31.694,119.106 31.730 C 118.639 31.793,118.630 31.780,118.715 31.144 C 118.794 30.554,118.750 30.453,118.232 30.058 C 117.871 29.783,117.713 29.555,117.801 29.437 C 118.119 29.013,117.994 28.500,117.573 28.500 C 117.206 28.500,117.083 28.338,117.151 27.946 C 117.164 27.870,117.116 27.845,117.044 27.889 C 116.844 28.013,116.396 27.626,116.267 27.219 C 116.193 26.986,116.043 26.876,115.852 26.913 C 115.615 26.959,115.568 26.887,115.628 26.572 C 115.768 25.841,115.534 25.367,114.925 25.147 C 114.404 24.958,114.377 24.919,114.634 24.708 C 114.790 24.580,114.828 24.520,114.720 24.574 C 114.612 24.628,114.476 24.596,114.418 24.503 C 114.361 24.410,114.153 24.333,113.957 24.333 C 113.679 24.333,113.644 24.289,113.800 24.133 C 114.111 23.823,114.038 23.667,113.583 23.667 C 113.245 23.667,113.163 23.581,113.147 23.208 C 113.136 22.956,113.125 22.712,113.123 22.667 C 113.118 22.563,112.543 22.015,112.379 21.958 C 112.313 21.935,112.280 21.758,112.305 21.564 C 112.343 21.275,112.274 21.219,111.931 21.257 C 111.699 21.282,111.517 21.253,111.525 21.193 C 111.575 20.815,111.475 20.496,111.333 20.583 C 111.242 20.640,111.167 20.616,111.167 20.529 C 111.167 20.443,111.017 20.333,110.833 20.285 C 110.650 20.237,110.501 20.097,110.503 19.974 C 110.504 19.804,110.544 19.810,110.667 20.000 C 110.804 20.212,110.829 20.204,110.831 19.947 C 110.833 19.716,110.751 19.670,110.488 19.754 C 110.227 19.837,110.121 19.779,110.053 19.517 C 110.003 19.326,109.896 19.211,109.814 19.262 C 109.733 19.312,109.667 19.282,109.667 19.196 C 109.667 19.110,109.507 18.997,109.312 18.946 C 109.081 18.886,108.990 18.765,109.053 18.603 C 109.116 18.439,108.991 18.283,108.686 18.149 C 108.338 17.995,108.241 17.853,108.294 17.576 C 108.353 17.267,108.297 17.216,107.937 17.256 C 107.702 17.282,107.517 17.253,107.525 17.193 C 107.575 16.815,107.475 16.496,107.333 16.583 C 107.242 16.640,107.167 16.607,107.167 16.510 C 107.167 16.413,107.083 16.333,106.982 16.333 C 106.736 16.333,106.007 15.634,106.003 15.395 C 106.001 15.292,105.771 15.112,105.491 14.996 C 105.154 14.857,105.014 14.703,105.077 14.541 C 105.144 14.364,105.089 14.325,104.877 14.399 C 104.615 14.490,104.616 14.475,104.893 14.261 C 105.173 14.043,105.124 14.024,104.372 14.052 C 103.817 14.073,103.566 14.022,103.614 13.896 C 103.712 13.642,103.233 13.190,102.733 13.064 C 102.347 12.967,102.340 12.947,102.620 12.718 C 102.783 12.585,102.828 12.520,102.720 12.574 C 102.612 12.628,102.476 12.596,102.418 12.503 C 102.361 12.410,102.153 12.333,101.957 12.333 C 101.679 12.333,101.644 12.289,101.800 12.133 C 102.158 11.776,102.014 11.667,101.185 11.667 C 100.459 11.667,100.358 11.622,100.267 11.260 C 100.195 10.972,100.072 10.871,99.846 10.914 C 99.670 10.948,99.484 10.865,99.432 10.729 C 99.379 10.590,99.409 10.527,99.502 10.585 C 99.789 10.762,99.679 10.463,99.375 10.240 C 99.192 10.107,99.015 10.085,98.898 10.182 C 98.767 10.291,98.737 10.207,98.797 9.893 C 98.855 9.587,98.823 9.487,98.691 9.568 C 98.577 9.639,98.500 9.576,98.500 9.413 C 98.500 9.262,98.406 9.173,98.292 9.215 C 98.177 9.257,98.102 9.376,98.125 9.479 C 98.148 9.582,98.084 9.667,97.982 9.667 C 97.881 9.667,97.841 9.554,97.894 9.417 C 97.963 9.236,97.875 9.167,97.578 9.167 C 97.286 9.167,97.167 9.076,97.167 8.851 C 97.167 8.492,96.856 8.333,96.153 8.333 C 95.876 8.333,95.666 8.243,95.664 8.125 C 95.662 7.984,95.604 7.997,95.483 8.167 C 95.340 8.368,95.321 8.343,95.387 8.042 C 95.462 7.697,95.409 7.667,94.734 7.667 C 94.259 7.667,94.000 7.593,93.999 7.458 C 93.998 7.344,93.766 7.118,93.482 6.956 C 93.140 6.762,92.999 6.577,93.063 6.408 C 93.212 6.020,92.688 5.909,92.414 6.271 C 92.183 6.576,92.177 6.576,92.172 6.271 C 92.167 5.999,92.130 5.989,91.885 6.188 C 91.693 6.343,91.643 6.350,91.728 6.208 C 91.797 6.094,91.774 6.000,91.677 6.000 C 91.579 6.000,91.500 5.850,91.500 5.667 C 91.500 5.483,91.406 5.326,91.292 5.316 C 91.177 5.307,90.674 5.268,90.175 5.230 C 89.340 5.166,88.915 4.939,89.093 4.650 C 89.193 4.489,88.731 4.333,88.153 4.333 C 87.876 4.333,87.666 4.243,87.664 4.125 C 87.662 3.969,87.626 3.973,87.521 4.139 C 87.406 4.319,87.361 4.314,87.283 4.108 C 87.229 3.969,87.275 3.818,87.384 3.774 C 87.494 3.729,87.007 3.687,86.302 3.680 C 85.526 3.672,84.973 3.591,84.901 3.474 C 84.820 3.344,84.857 3.327,85.016 3.423 C 85.211 3.540,85.214 3.519,85.035 3.298 C 84.859 3.081,84.859 3.015,85.035 2.937 C 85.156 2.884,85.104 2.848,84.917 2.857 C 83.818 2.906,82.833 2.811,82.833 2.655 C 82.833 2.213,82.329 2.000,81.285 2.000 C 80.246 2.000,80.215 1.988,80.289 1.604 L 80.364 1.207 78.698 1.229 C 77.782 1.240,77.067 1.194,77.109 1.125 C 77.152 1.056,77.065 1.000,76.917 1.000 C 76.768 1.000,76.688 0.933,76.739 0.851 C 76.850 0.672,76.367 0.460,76.152 0.593 C 76.068 0.644,76.000 0.607,76.000 0.510 C 76.000 0.240,71.720 0.271,71.610 0.542 C 71.564 0.656,71.519 0.563,71.511 0.333 C 71.498 -0.008,71.463 -0.038,71.318 0.167 C 71.185 0.355,71.120 0.365,71.057 0.208 C 70.948 -0.059,56.667 -0.100,56.667 0.167 M36.592 16.486 C 36.540 16.570,36.588 16.668,36.699 16.705 C 36.826 16.747,36.795 16.812,36.617 16.881 C 36.335 16.989,36.212 16.677,36.444 16.444 C 36.607 16.282,36.702 16.309,36.592 16.486 M114.833 43.894 C 114.833 43.975,114.733 43.957,114.610 43.855 C 114.487 43.753,114.337 43.719,114.276 43.779 C 114.216 43.840,114.167 43.763,114.167 43.610 C 114.167 43.372,114.216 43.362,114.500 43.539 C 114.683 43.653,114.833 43.813,114.833 43.894 M138.004 53.171 L 137.994 60.333 138.413 60.333 C 138.750 60.333,138.833 60.416,138.833 60.750 C 138.833 61.083,138.750 61.167,138.417 61.167 L 138.000 61.167 138.000 73.217 C 138.000 82.626,138.046 85.316,138.208 85.491 C 138.375 85.671,138.375 85.692,138.208 85.598 C 138.079 85.525,138.000 85.583,138.000 85.750 C 138.000 85.898,138.075 85.973,138.167 85.917 C 138.258 85.860,138.333 85.889,138.333 85.980 C 138.333 86.072,138.255 86.196,138.159 86.255 C 138.039 86.329,138.046 86.437,138.179 86.598 C 138.421 86.890,168.500 86.958,168.500 86.667 C 168.500 86.575,168.556 86.509,168.625 86.520 C 169.133 86.600,169.143 86.459,169.160 79.116 C 169.169 75.055,169.123 71.678,169.056 71.611 C 168.875 71.430,168.839 70.984,169.015 71.092 C 169.098 71.144,169.167 71.111,169.167 71.019 C 169.167 70.786,159.841 70.763,159.813 70.996 C 159.801 71.090,159.773 71.242,159.750 71.333 C 159.727 71.425,159.699 72.587,159.688 73.917 L 159.667 76.333 154.417 76.333 L 149.167 76.333 149.167 66.000 L 149.167 55.667 154.417 55.667 L 159.667 55.667 159.686 59.792 C 159.697 62.060,159.696 64.002,159.683 64.107 C 159.652 64.369,168.346 64.427,168.829 64.169 C 169.315 63.909,169.353 46.233,168.868 46.402 C 168.630 46.485,168.634 46.462,168.894 46.260 C 169.166 46.049,167.252 46.018,153.609 46.013 L 138.014 46.008 138.004 53.171 M190.991 46.239 C 191.122 46.398,191.128 46.504,191.008 46.578 C 190.888 46.652,190.839 51.345,190.850 61.552 C 190.859 69.727,190.927 76.229,191.000 76.000 C 191.105 75.673,191.133 75.764,191.133 76.417 C 191.133 77.070,191.105 77.160,191.000 76.833 C 190.922 76.591,190.860 77.758,190.850 79.625 C 190.839 81.664,190.894 82.833,191.000 82.833 C 191.092 82.833,191.167 83.021,191.167 83.250 C 191.167 83.479,191.092 83.667,191.000 83.667 C 190.808 83.667,190.795 85.093,190.983 85.571 C 191.103 85.878,191.342 85.894,196.156 85.926 C 199.029 85.945,201.106 85.897,200.977 85.815 C 200.824 85.719,200.815 85.671,200.949 85.669 C 201.100 85.667,201.150 84.041,201.156 78.958 C 201.161 75.269,201.165 72.121,201.166 71.963 C 201.167 71.699,201.560 71.673,206.042 71.630 L 210.917 71.583 210.905 74.833 C 210.895 77.700,210.906 77.838,210.996 76.000 L 211.099 73.917 211.133 76.375 C 211.154 77.925,211.105 78.833,211.000 78.833 C 210.754 78.833,210.793 80.289,211.042 80.390 C 211.208 80.457,211.208 80.476,211.042 80.487 C 210.782 80.503,210.745 84.913,211.000 85.582 L 211.166 86.019 216.150 85.968 C 218.891 85.940,221.048 85.862,220.942 85.794 C 220.800 85.704,220.803 85.671,220.952 85.669 C 221.300 85.665,221.252 68.569,220.904 68.435 C 220.758 68.379,220.053 68.333,219.336 68.333 L 218.032 68.333 217.974 67.542 L 217.917 66.750 219.465 66.762 C 220.683 66.771,220.995 66.727,220.928 66.554 C 220.882 66.432,220.918 66.333,221.009 66.333 C 221.341 66.333,221.201 46.480,220.867 46.226 C 220.429 45.893,190.714 45.906,190.991 46.239 M226.002 62.010 L 225.997 78.000 226.415 78.000 C 226.750 78.000,226.833 78.083,226.833 78.417 C 226.833 78.750,226.750 78.833,226.417 78.833 L 226.000 78.833 226.000 82.050 C 226.000 84.393,226.057 85.328,226.208 85.491 C 226.375 85.671,226.375 85.692,226.208 85.598 C 226.079 85.525,226.000 85.583,226.000 85.750 C 226.000 85.898,226.075 85.973,226.167 85.917 C 226.258 85.860,226.333 85.889,226.333 85.980 C 226.333 86.072,226.255 86.196,226.159 86.255 C 226.039 86.329,226.046 86.437,226.179 86.598 C 226.421 86.890,255.833 86.958,255.833 86.667 C 255.833 86.575,255.927 86.519,256.042 86.542 C 256.256 86.585,256.459 72.045,256.255 71.219 C 256.166 70.857,256.139 70.855,252.019 70.839 C 247.265 70.821,247.678 70.652,247.703 72.613 C 247.712 73.330,247.708 74.460,247.693 75.125 L 247.667 76.333 242.000 76.333 L 236.333 76.333 236.333 66.000 L 236.333 55.667 240.319 55.667 C 243.352 55.667,244.326 55.617,244.390 55.458 C 244.457 55.292,244.476 55.292,244.487 55.458 C 244.496 55.609,244.935 55.667,246.083 55.667 L 247.667 55.667 247.686 59.792 C 247.697 62.060,247.696 64.004,247.683 64.110 C 247.665 64.254,248.878 64.297,252.371 64.277 L 257.083 64.250 257.129 55.212 C 257.171 46.789,257.155 46.181,256.893 46.282 C 256.703 46.355,256.651 46.327,256.733 46.194 C 256.825 46.045,253.199 46.001,241.430 46.010 L 226.007 46.021 226.002 62.010 M261.692 46.282 C 261.894 46.527,261.879 46.535,261.543 46.355 L 261.169 46.156 261.169 66.394 C 261.169 84.485,261.197 86.643,261.427 86.731 C 261.601 86.798,261.644 86.763,261.560 86.623 C 261.462 86.459,261.489 86.459,261.690 86.622 C 262.187 87.024,291.021 86.917,291.368 86.512 C 291.565 86.281,291.588 86.164,291.448 86.107 C 291.302 86.048,291.305 86.023,291.458 86.013 C 291.620 86.003,291.666 84.875,291.664 80.958 C 291.663 78.146,291.599 76.015,291.521 76.139 C 291.406 76.319,291.361 76.314,291.283 76.108 C 291.229 75.969,291.275 75.818,291.384 75.773 C 291.494 75.727,287.083 75.704,281.583 75.720 L 271.583 75.750 271.627 61.353 C 271.661 49.964,271.626 46.901,271.460 46.696 C 271.295 46.491,271.294 46.463,271.458 46.561 C 271.573 46.630,271.667 46.625,271.667 46.550 C 271.667 46.088,270.898 46.012,266.245 46.011 C 261.843 46.010,261.485 46.031,261.692 46.282 M296.542 46.255 C 296.127 46.715,296.250 86.343,296.667 86.452 C 296.850 86.500,297.000 86.604,297.000 86.684 C 297.000 86.931,325.166 86.874,325.473 86.625 C 325.678 86.459,325.705 86.459,325.605 86.625 C 325.537 86.740,325.555 86.833,325.646 86.833 C 325.736 86.833,325.858 86.683,325.917 86.500 C 326.065 86.033,325.945 76.515,325.792 76.609 C 325.723 76.652,325.667 76.607,325.667 76.510 C 325.667 76.388,322.769 76.333,316.259 76.333 L 306.850 76.333 306.800 73.958 L 306.750 71.583 312.420 71.583 L 318.090 71.583 318.024 72.148 C 317.979 72.536,318.017 72.676,318.146 72.596 C 318.249 72.532,318.333 72.560,318.333 72.657 C 318.333 72.754,318.258 72.833,318.167 72.833 C 318.075 72.833,318.000 72.899,318.000 72.978 C 318.000 73.058,318.694 73.114,319.542 73.103 L 321.083 73.083 321.124 66.459 C 321.146 62.815,321.109 59.846,321.041 59.860 C 320.972 59.874,320.790 59.831,320.636 59.763 C 320.481 59.695,319.844 59.664,319.219 59.695 L 318.083 59.750 318.083 60.500 L 318.083 61.250 312.000 61.250 L 305.917 61.250 305.928 59.710 C 305.935 58.864,305.982 58.129,306.034 58.077 C 306.085 58.026,310.169 57.984,315.109 57.983 C 320.050 57.982,324.371 57.919,324.711 57.842 C 325.072 57.761,325.293 57.765,325.239 57.851 C 325.188 57.933,325.342 58.000,325.579 58.000 L 326.012 58.000 325.987 51.998 L 325.962 45.995 311.356 46.010 C 299.137 46.022,296.716 46.062,296.542 46.255 M159.667 46.500 C 159.667 46.592,159.479 46.667,159.250 46.667 C 159.021 46.667,158.833 46.592,158.833 46.500 C 158.833 46.408,159.021 46.333,159.250 46.333 C 159.479 46.333,159.667 46.408,159.667 46.500 M229.333 46.500 C 229.333 46.592,229.108 46.667,228.833 46.667 C 228.558 46.667,228.333 46.592,228.333 46.500 C 228.333 46.408,228.558 46.333,228.833 46.333 C 229.108 46.333,229.333 46.408,229.333 46.500 M175.125 47.011 C 174.788 47.210,174.668 52.333,175.000 52.333 C 175.092 52.333,175.159 52.540,175.150 52.792 L 175.133 53.250 175.000 52.833 C 174.922 52.591,174.860 53.758,174.850 55.625 C 174.839 57.664,174.894 58.833,175.000 58.833 C 175.092 58.833,175.158 59.223,175.147 59.708 C 175.130 60.456,175.109 60.511,175.000 60.083 C 174.930 59.808,174.864 62.452,174.853 65.958 C 174.840 70.110,174.891 72.333,175.000 72.333 C 175.099 72.333,175.156 72.857,175.140 73.625 C 175.112 74.913,175.112 74.914,175.000 74.000 C 174.901 73.194,174.884 73.280,174.860 74.708 C 174.844 75.699,174.898 76.333,175.000 76.333 C 175.092 76.333,175.159 76.540,175.150 76.792 L 175.133 77.250 175.000 76.833 C 174.926 76.602,174.864 78.378,174.862 80.833 C 174.859 83.262,174.914 85.396,174.984 85.574 C 175.105 85.884,175.327 85.899,180.154 85.927 C 182.971 85.942,185.098 85.892,184.973 85.813 C 184.809 85.709,184.805 85.671,184.957 85.669 C 185.184 85.666,185.276 47.831,185.049 47.605 C 184.873 47.428,184.843 46.986,185.015 47.092 C 185.098 47.144,185.167 47.111,185.167 47.019 C 185.167 46.786,175.518 46.779,175.125 47.011 M177.458 47.121 C 177.115 47.157,176.552 47.157,176.208 47.121 C 175.865 47.085,176.146 47.056,176.833 47.056 C 177.521 47.056,177.802 47.085,177.458 47.121 M191.119 54.458 C 191.081 54.710,191.050 54.504,191.050 54.000 C 191.050 53.496,191.081 53.290,191.119 53.542 C 191.158 53.794,191.158 54.206,191.119 54.458 M211.667 56.417 L 211.667 59.667 206.417 59.667 L 201.167 59.667 201.167 56.417 L 201.167 53.167 206.417 53.167 L 211.667 53.167 211.667 56.417 M191.121 72.625 C 191.085 72.969,191.056 72.688,191.056 72.000 C 191.056 71.313,191.085 71.031,191.121 71.375 C 191.157 71.719,191.157 72.281,191.121 72.625 M161.625 71.119 C 161.373 71.158,160.960 71.158,160.708 71.119 C 160.456 71.081,160.662 71.050,161.167 71.050 C 161.671 71.050,161.877 71.081,161.625 71.119 M249.125 71.115 C 248.965 71.157,248.702 71.157,248.542 71.115 C 248.381 71.073,248.512 71.039,248.833 71.039 C 249.154 71.039,249.285 71.073,249.125 71.115 M253.125 71.115 C 252.965 71.157,252.702 71.157,252.542 71.115 C 252.381 71.073,252.512 71.039,252.833 71.039 C 253.154 71.039,253.285 71.073,253.125 71.115 M4.563 81.423 C 4.610 81.545,4.558 81.683,4.449 81.729 C 3.610 82.081,5.024 82.333,7.839 82.333 C 11.619 82.333,11.312 82.014,11.371 86.009 L 11.417 89.083 12.250 89.079 L 13.083 89.074 13.135 85.264 C 13.171 82.610,13.130 81.397,13.000 81.268 C 12.863 81.132,12.846 81.171,12.935 81.417 C 13.053 81.740,13.046 81.741,12.715 81.451 C 12.265 81.056,4.412 81.029,4.563 81.423 M175.119 82.458 C 175.081 82.710,175.050 82.504,175.050 82.000 C 175.050 81.496,175.081 81.290,175.119 81.542 C 175.158 81.794,175.158 82.206,175.119 82.458 M211.119 83.292 C 211.081 83.544,211.050 83.337,211.050 82.833 C 211.050 82.329,211.081 82.123,211.119 82.375 C 211.158 82.627,211.158 83.040,211.119 83.292 M20.167 102.164 C 20.167 102.257,20.052 102.333,19.913 102.333 C 19.690 102.333,19.661 103.067,19.671 108.332 L 19.682 114.330 20.050 114.540 C 20.581 114.844,31.397 114.945,31.947 114.651 L 32.333 114.444 32.333 108.389 C 32.333 104.238,32.278 102.333,32.157 102.333 C 32.060 102.333,32.022 102.266,32.073 102.183 C 32.128 102.095,29.681 102.025,26.166 102.014 C 22.213 102.002,20.167 102.053,20.167 102.164 M94.889 102.256 C 94.889 102.382,94.970 102.437,95.069 102.377 C 95.169 102.318,95.155 102.387,95.039 102.530 C 94.875 102.733,94.829 104.418,94.837 110.020 C 94.843 114.627,94.904 117.158,95.004 116.999 C 95.109 116.833,95.162 116.820,95.164 116.958 C 95.166 117.073,95.246 117.167,95.343 117.167 C 95.440 117.167,95.467 117.073,95.402 116.958 C 95.308 116.792,95.329 116.792,95.509 116.958 C 95.748 117.180,109.244 117.276,110.305 117.064 L 110.819 116.961 110.826 109.719 C 110.833 103.645,110.795 102.438,110.595 102.238 C 110.245 101.888,94.889 101.906,94.889 102.256 M95.119 107.292 C 95.081 107.544,95.050 107.337,95.050 106.833 C 95.050 106.329,95.081 106.123,95.119 106.375 C 95.158 106.627,95.158 107.040,95.119 107.292 M95.119 112.125 C 95.081 112.377,95.050 112.171,95.050 111.667 C 95.050 111.162,95.081 110.956,95.119 111.208 C 95.158 111.460,95.158 111.873,95.119 112.125 M70.195 117.383 C 70.083 117.518,70.015 119.255,70.005 122.213 L 69.991 126.833 70.412 126.833 C 70.750 126.833,70.833 126.915,70.833 127.250 C 70.833 127.583,70.750 127.667,70.417 127.667 L 70.000 127.667 70.000 129.833 L 70.000 132.000 77.586 132.000 L 85.172 132.000 85.128 124.639 C 85.093 118.835,85.038 117.269,84.871 117.235 C 84.754 117.211,84.735 117.230,84.829 117.276 C 84.923 117.323,85.000 117.441,85.000 117.540 C 85.000 117.638,84.863 117.595,84.697 117.444 C 84.294 117.079,70.495 117.021,70.195 117.383 M44.542 118.259 C 44.267 118.559,44.236 131.167,44.510 131.167 C 44.607 131.167,44.633 131.253,44.567 131.359 C 44.496 131.474,44.521 131.506,44.629 131.440 C 44.729 131.378,44.857 131.404,44.915 131.497 C 45.081 131.766,57.999 131.727,58.003 131.458 C 58.004 131.319,58.059 131.333,58.167 131.500 C 58.291 131.693,58.329 131.698,58.331 131.524 C 58.332 131.395,58.437 131.338,58.576 131.391 C 58.944 131.532,58.962 118.605,58.594 118.237 C 58.242 117.885,44.865 117.905,44.542 118.259 " stroke="none" fill="#cccfd4" fill-rule="evenodd"></path><path id="path1" d="M330.833 66.417 L 330.833 86.833 345.583 86.833 L 360.333 86.833 360.333 81.583 L 360.333 76.333 350.750 76.333 L 341.167 76.333 341.167 74.000 L 341.167 71.667 347.167 71.667 L 353.167 71.667 353.167 72.417 L 353.167 73.167 354.417 73.167 L 355.667 73.167 355.667 66.417 L 355.667 59.667 354.417 59.667 L 353.167 59.667 353.167 60.417 L 353.167 61.167 347.167 61.167 L 341.167 61.167 341.167 59.583 L 341.167 58.000 350.750 58.000 L 360.333 58.000 360.333 52.000 L 360.333 46.000 345.583 46.000 L 330.833 46.000 330.833 66.417 M370.833 54.417 L 370.833 62.833 371.250 62.833 C 371.633 62.833,371.667 62.894,371.667 63.583 C 371.667 64.222,371.716 64.333,372.000 64.333 C 372.244 64.333,372.333 64.444,372.333 64.750 C 372.333 65.139,372.389 65.167,373.167 65.167 L 374.000 65.167 374.000 66.000 C 374.000 66.778,373.972 66.833,373.583 66.833 C 373.250 66.833,373.167 66.917,373.167 67.250 C 373.167 67.583,373.083 67.667,372.750 67.667 C 372.444 67.667,372.333 67.756,372.333 68.000 C 372.333 68.222,372.222 68.333,372.000 68.333 C 371.711 68.333,371.667 68.444,371.667 69.167 C 371.667 69.944,371.639 70.000,371.250 70.000 L 370.833 70.000 370.833 78.000 L 370.833 86.000 376.000 86.000 L 381.167 86.000 381.167 78.833 L 381.167 71.667 385.583 71.667 L 390.000 71.667 390.000 78.833 L 390.000 86.000 395.000 86.000 L 400.000 86.000 400.000 78.000 C 400.000 73.087,399.939 70.000,399.842 70.000 C 399.756 70.000,399.662 69.644,399.634 69.208 C 399.591 68.533,399.528 68.409,399.208 68.363 C 398.967 68.329,398.833 68.195,398.833 67.988 C 398.833 67.756,398.717 67.667,398.417 67.667 C 398.083 67.667,398.000 67.583,398.000 67.250 C 398.000 66.917,397.917 66.833,397.583 66.833 C 397.194 66.833,397.167 66.778,397.167 66.000 L 397.167 65.167 398.000 65.167 C 398.778 65.167,398.833 65.139,398.833 64.750 C 398.833 64.417,398.917 64.333,399.250 64.333 C 399.633 64.333,399.667 64.272,399.667 63.583 C 399.667 63.171,399.742 62.833,399.833 62.833 C 399.942 62.833,400.000 59.917,400.000 54.417 L 400.000 46.000 395.000 46.000 L 390.000 46.000 390.000 53.583 L 390.000 61.167 385.583 61.167 L 381.167 61.167 381.167 53.583 L 381.167 46.000 376.000 46.000 L 370.833 46.000 370.833 54.417 M106.000 84.417 L 106.000 95.667 117.167 95.667 L 128.333 95.667 128.333 84.417 L 128.333 73.167 117.167 73.167 L 106.000 73.167 106.000 84.417 M2.000 85.987 L 2.000 90.000 6.833 90.000 L 11.667 90.000 11.667 89.593 C 11.667 89.369,11.592 89.140,11.500 89.083 C 11.399 89.021,11.333 87.785,11.333 85.933 C 11.333 82.052,11.648 82.374,7.745 82.265 C 6.098 82.219,4.131 82.135,3.375 82.078 L 2.000 81.975 2.000 85.987 " stroke="none" fill="#6454a4" fill-rule="evenodd"></path><path id="path2" d="M76.722 0.766 C 76.722 0.895,76.822 1.000,76.944 1.000 C 77.067 1.000,77.167 0.933,77.167 0.851 C 77.167 0.769,77.067 0.664,76.944 0.617 C 76.822 0.570,76.722 0.637,76.722 0.766 M40.392 4.122 C 40.364 4.567,40.378 4.564,40.635 4.069 C 40.769 3.811,40.765 3.722,40.616 3.722 C 40.506 3.722,40.406 3.902,40.392 4.122 M87.379 3.805 C 87.266 3.875,87.241 4.017,87.319 4.143 C 87.423 4.313,87.478 4.297,87.564 4.073 C 87.697 3.727,87.640 3.644,87.379 3.805 M37.299 5.283 C 37.475 5.351,37.475 5.413,37.299 5.627 C 37.108 5.858,37.126 5.865,37.458 5.688 C 37.665 5.578,37.833 5.432,37.833 5.363 C 37.833 5.294,37.665 5.229,37.458 5.219 C 37.252 5.209,37.180 5.238,37.299 5.283 M34.076 7.011 C 33.881 7.327,34.166 7.405,34.456 7.115 C 34.716 6.855,34.717 6.833,34.462 6.833 C 34.310 6.833,34.137 6.913,34.076 7.011 M93.500 7.000 C 93.823 7.209,94.000 7.209,94.000 7.000 C 94.000 6.908,93.831 6.834,93.625 6.836 C 93.322 6.838,93.298 6.869,93.500 7.000 M32.333 7.845 C 32.333 7.920,32.493 7.950,32.689 7.912 C 33.210 7.812,33.244 7.708,32.757 7.708 C 32.524 7.708,32.333 7.770,32.333 7.845 M58.611 9.444 C 58.445 9.610,58.477 10.000,58.656 10.000 C 58.742 10.000,58.801 9.850,58.788 9.667 C 58.759 9.290,58.762 9.294,58.611 9.444 M70.042 9.708 C 70.080 9.823,70.252 9.944,70.425 9.978 C 70.697 10.030,70.709 10.002,70.516 9.769 C 70.252 9.451,69.943 9.411,70.042 9.708 M71.792 9.957 C 72.365 9.989,73.302 9.989,73.875 9.957 C 74.448 9.924,73.979 9.898,72.833 9.898 C 71.688 9.898,71.219 9.924,71.792 9.957 M53.583 10.167 C 53.315 10.282,53.304 10.312,53.529 10.322 C 53.683 10.328,53.843 10.465,53.885 10.625 C 53.932 10.804,53.969 10.740,53.981 10.458 C 53.991 10.206,53.981 10.005,53.958 10.012 C 53.935 10.018,53.767 10.088,53.583 10.167 M74.833 10.578 C 74.833 10.696,75.019 10.792,75.247 10.792 C 75.719 10.792,75.671 10.584,75.169 10.452 C 74.962 10.398,74.833 10.446,74.833 10.578 M50.566 11.125 C 50.632 11.240,50.607 11.333,50.510 11.333 C 50.413 11.333,50.333 11.408,50.333 11.500 C 50.333 11.592,50.439 11.667,50.569 11.667 C 50.817 11.667,50.830 11.266,50.589 11.046 C 50.511 10.975,50.501 11.010,50.566 11.125 M80.333 12.155 C 80.333 12.230,80.524 12.292,80.757 12.292 C 81.244 12.292,81.210 12.188,80.689 12.088 C 80.493 12.050,80.333 12.080,80.333 12.155 M102.487 12.567 C 102.636 12.747,102.631 12.821,102.465 12.887 C 102.328 12.942,102.356 12.978,102.542 12.987 C 102.865 13.001,102.878 12.976,102.732 12.597 C 102.677 12.452,102.555 12.333,102.462 12.333 C 102.359 12.333,102.369 12.425,102.487 12.567 M43.238 13.676 C 43.238 13.854,43.335 14.000,43.452 14.000 C 43.570 14.000,43.667 13.934,43.667 13.854 C 43.667 13.773,43.570 13.627,43.452 13.530 C 43.290 13.395,43.238 13.431,43.238 13.676 M86.833 14.578 C 86.833 14.696,87.019 14.792,87.247 14.792 C 87.719 14.792,87.671 14.584,87.169 14.452 C 86.962 14.398,86.833 14.446,86.833 14.578 M105.500 15.000 C 105.823 15.209,106.000 15.209,106.000 15.000 C 106.000 14.908,105.831 14.834,105.625 14.836 C 105.322 14.838,105.298 14.869,105.500 15.000 M88.375 15.375 C 88.413 15.490,88.586 15.611,88.759 15.644 C 89.030 15.697,89.043 15.669,88.849 15.436 C 88.585 15.117,88.276 15.078,88.375 15.375 M38.686 15.700 C 38.675 15.856,38.535 16.060,38.375 16.153 C 38.215 16.247,38.158 16.324,38.250 16.326 C 38.595 16.331,38.863 16.032,38.786 15.730 C 38.719 15.469,38.702 15.464,38.686 15.700 M106.455 16.000 C 106.612 16.183,106.755 16.333,106.771 16.333 C 106.788 16.333,106.763 16.183,106.715 16.000 C 106.667 15.817,106.525 15.667,106.399 15.667 C 106.224 15.667,106.237 15.745,106.455 16.000 M36.397 16.575 C 36.267 16.912,36.460 17.167,36.843 17.167 C 37.176 17.167,37.309 16.608,37.019 16.428 C 36.938 16.378,36.881 16.459,36.894 16.609 C 36.906 16.758,36.804 16.913,36.667 16.953 C 36.444 17.017,36.444 17.006,36.667 16.849 C 36.850 16.719,36.859 16.671,36.698 16.669 C 36.579 16.668,36.527 16.592,36.583 16.500 C 36.640 16.408,36.642 16.333,36.588 16.333 C 36.534 16.333,36.448 16.442,36.397 16.575 M107.167 16.496 C 107.167 16.601,107.236 16.643,107.321 16.591 C 107.405 16.539,107.510 16.611,107.554 16.751 C 107.615 16.949,107.627 16.943,107.608 16.725 C 107.580 16.412,107.167 16.196,107.167 16.496 M92.333 17.797 C 92.333 17.869,92.540 17.939,92.792 17.953 C 93.187 17.975,93.204 17.958,92.917 17.834 C 92.483 17.647,92.333 17.637,92.333 17.797 M34.433 18.474 C 34.375 18.567,34.409 18.694,34.508 18.755 C 34.765 18.914,34.930 18.697,34.716 18.483 C 34.596 18.363,34.503 18.360,34.433 18.474 M109.013 18.641 C 109.006 18.764,109.150 18.904,109.333 18.952 C 109.517 19.000,109.667 19.110,109.667 19.196 C 109.667 19.282,109.742 19.307,109.833 19.250 C 110.136 19.063,110.006 18.833,109.597 18.833 C 109.376 18.833,109.157 18.740,109.110 18.625 C 109.047 18.468,109.023 18.472,109.013 18.641 M18.076 19.011 C 17.881 19.327,18.166 19.405,18.456 19.115 C 18.716 18.855,18.717 18.833,18.462 18.833 C 18.310 18.833,18.137 18.913,18.076 19.011 M111.167 20.496 C 111.167 20.601,111.236 20.643,111.321 20.591 C 111.405 20.539,111.510 20.611,111.554 20.751 C 111.615 20.949,111.627 20.943,111.608 20.725 C 111.580 20.412,111.167 20.196,111.167 20.496 M30.500 21.667 C 30.359 21.930,30.373 22.000,30.567 22.000 C 30.710 22.000,30.802 21.861,30.788 21.667 C 30.774 21.483,30.743 21.333,30.720 21.333 C 30.697 21.333,30.598 21.483,30.500 21.667 M99.309 22.133 C 99.572 22.317,99.277 22.588,99.000 22.417 C 98.908 22.360,98.833 22.421,98.833 22.553 C 98.833 22.692,98.995 22.792,99.221 22.792 C 99.659 22.792,99.743 22.153,99.320 22.038 C 99.124 21.986,99.123 22.002,99.309 22.133 M112.705 22.198 C 112.806 22.500,113.111 22.543,113.111 22.255 C 113.111 22.115,113.005 22.000,112.875 22.000 C 112.745 22.000,112.669 22.089,112.705 22.198 M99.667 23.417 C 99.667 23.569,99.747 23.668,99.846 23.635 C 99.944 23.602,100.025 23.504,100.025 23.417 C 100.025 23.330,99.944 23.231,99.846 23.199 C 99.747 23.166,99.667 23.264,99.667 23.417 M100.333 24.155 C 100.333 24.230,100.524 24.292,100.757 24.292 C 101.244 24.292,101.210 24.188,100.689 24.088 C 100.493 24.050,100.333 24.080,100.333 24.155 M114.487 24.567 C 114.636 24.747,114.631 24.821,114.465 24.887 C 114.328 24.942,114.356 24.978,114.542 24.987 C 114.865 25.001,114.878 24.976,114.732 24.597 C 114.677 24.452,114.555 24.333,114.462 24.333 C 114.359 24.333,114.369 24.425,114.487 24.567 M101.213 24.824 C 101.197 25.044,101.266 25.118,101.432 25.054 C 101.619 24.983,101.631 24.908,101.484 24.731 C 101.241 24.438,101.242 24.438,101.213 24.824 M102.833 26.578 C 102.833 26.696,103.019 26.792,103.247 26.792 C 103.719 26.792,103.671 26.584,103.169 26.452 C 102.962 26.398,102.833 26.446,102.833 26.578 M103.667 27.417 C 103.667 27.569,103.747 27.668,103.846 27.635 C 103.944 27.602,104.025 27.504,104.025 27.417 C 104.025 27.330,103.944 27.231,103.846 27.199 C 103.747 27.166,103.667 27.264,103.667 27.417 M104.333 28.155 C 104.333 28.230,104.524 28.292,104.757 28.292 C 105.244 28.292,105.210 28.188,104.689 28.088 C 104.493 28.050,104.333 28.080,104.333 28.155 M105.213 28.824 C 105.197 29.044,105.266 29.118,105.432 29.054 C 105.619 28.983,105.631 28.908,105.484 28.731 C 105.241 28.438,105.242 28.438,105.213 28.824 M22.611 29.444 C 22.445 29.610,22.477 30.000,22.656 30.000 C 22.742 30.000,22.801 29.850,22.788 29.667 C 22.759 29.290,22.762 29.294,22.611 29.444 M118.387 30.110 C 118.448 30.170,118.404 30.339,118.290 30.485 C 118.112 30.714,118.120 30.722,118.349 30.543 C 118.495 30.429,118.663 30.386,118.724 30.446 C 118.784 30.506,118.833 30.431,118.833 30.278 C 118.833 30.125,118.708 30.000,118.556 30.000 C 118.403 30.000,118.327 30.049,118.387 30.110 M9.208 31.109 C 9.233 31.439,9.261 31.446,9.617 31.212 C 10.068 30.917,10.080 30.889,9.750 30.889 C 9.612 30.889,9.499 30.970,9.497 31.069 C 9.496 31.169,9.424 31.138,9.338 31.002 C 9.213 30.805,9.187 30.826,9.208 31.109 M118.705 31.333 C 118.705 31.654,118.740 31.785,118.782 31.625 C 118.823 31.465,118.823 31.202,118.782 31.042 C 118.740 30.881,118.705 31.012,118.705 31.333 M8.333 31.845 C 8.333 31.920,8.493 31.950,8.689 31.912 C 9.210 31.812,9.244 31.708,8.757 31.708 C 8.524 31.708,8.333 31.770,8.333 31.845 M119.393 31.771 C 119.288 31.814,119.240 31.996,119.287 32.175 C 119.406 32.629,119.579 32.580,119.607 32.083 C 119.621 31.854,119.621 31.673,119.607 31.680 C 119.594 31.687,119.498 31.728,119.393 31.771 M18.566 35.125 C 18.632 35.240,18.607 35.333,18.510 35.333 C 18.413 35.333,18.333 35.408,18.333 35.500 C 18.333 35.592,18.439 35.667,18.569 35.667 C 18.817 35.667,18.830 35.266,18.589 35.046 C 18.511 34.975,18.501 35.010,18.566 35.125 M17.866 35.602 C 17.747 35.732,17.703 35.924,17.769 36.031 C 17.846 36.155,17.939 36.087,18.031 35.838 C 18.205 35.366,18.153 35.291,17.866 35.602 M110.044 35.972 C 110.056 36.140,110.160 36.278,110.274 36.278 C 110.424 36.278,110.436 36.193,110.318 35.972 C 110.229 35.804,110.125 35.667,110.088 35.667 C 110.051 35.667,110.031 35.804,110.044 35.972 M6.000 36.750 C 6.000 37.293,6.243 37.293,6.274 36.750 C 6.287 36.521,6.231 36.333,6.149 36.333 C 6.067 36.333,6.000 36.521,6.000 36.750 M4.333 39.845 C 4.333 39.920,4.493 39.950,4.689 39.912 C 5.210 39.812,5.244 39.708,4.757 39.708 C 4.524 39.708,4.333 39.770,4.333 39.845 M112.333 40.155 C 112.333 40.230,112.524 40.292,112.757 40.292 C 113.244 40.292,113.210 40.188,112.689 40.088 C 112.493 40.050,112.333 40.080,112.333 40.155 M113.238 41.667 C 113.238 41.850,113.326 42.000,113.433 42.000 C 113.540 42.000,113.667 41.850,113.715 41.667 C 113.777 41.430,113.720 41.333,113.520 41.333 C 113.349 41.333,113.238 41.465,113.238 41.667 M14.433 42.474 C 14.375 42.567,14.409 42.694,14.508 42.755 C 14.765 42.914,14.930 42.697,14.716 42.483 C 14.596 42.363,14.503 42.360,14.433 42.474 M13.790 43.292 C 13.746 43.635,13.775 43.988,13.855 44.075 C 13.939 44.167,14.000 43.904,14.000 43.450 C 14.000 42.508,13.900 42.432,13.790 43.292 M114.167 43.485 C 114.167 43.570,114.124 43.777,114.071 43.945 C 113.979 44.237,113.983 44.237,114.168 43.949 C 114.320 43.712,114.410 43.690,114.597 43.844 C 114.727 43.952,114.833 43.975,114.833 43.894 C 114.833 43.813,114.683 43.653,114.500 43.539 C 114.317 43.424,114.167 43.400,114.167 43.485 M125.567 45.565 C 125.459 45.848,125.605 46.167,125.843 46.167 C 126.053 46.167,126.044 45.547,125.832 45.416 C 125.740 45.359,125.621 45.426,125.567 45.565 M228.542 46.115 C 228.702 46.157,228.965 46.157,229.125 46.115 C 229.285 46.073,229.154 46.039,228.833 46.039 C 228.512 46.039,228.381 46.073,228.542 46.115 M158.833 46.500 C 158.833 46.592,159.021 46.667,159.250 46.667 C 159.479 46.667,159.667 46.592,159.667 46.500 C 159.667 46.408,159.479 46.333,159.250 46.333 C 159.021 46.333,158.833 46.408,158.833 46.500 M228.333 46.500 C 228.333 46.592,228.558 46.667,228.833 46.667 C 229.108 46.667,229.333 46.592,229.333 46.500 C 229.333 46.408,229.108 46.333,228.833 46.333 C 228.558 46.333,228.333 46.408,228.333 46.500 M2.059 47.039 C 1.887 47.318,2.173 47.399,2.429 47.143 C 2.656 46.915,2.655 46.889,2.417 46.889 C 2.271 46.889,2.110 46.956,2.059 47.039 M176.208 47.121 C 176.552 47.157,177.115 47.157,177.458 47.121 C 177.802 47.085,177.521 47.056,176.833 47.056 C 176.146 47.056,175.865 47.085,176.208 47.121 M126.478 48.557 C 126.580 48.680,126.614 48.830,126.554 48.890 C 126.494 48.951,126.532 49.000,126.639 49.000 C 126.862 49.000,126.871 48.959,126.732 48.597 C 126.677 48.452,126.555 48.333,126.462 48.333 C 126.355 48.333,126.361 48.416,126.478 48.557 M1.224 49.424 C 1.170 49.565,1.172 49.728,1.229 49.785 C 1.287 49.842,1.333 49.769,1.333 49.623 C 1.333 49.477,1.465 49.323,1.625 49.282 C 1.898 49.210,1.898 49.204,1.620 49.186 C 1.456 49.175,1.278 49.282,1.224 49.424 M116.333 50.498 C 116.333 50.613,116.725 50.833,116.930 50.833 C 117.158 50.833,116.944 50.524,116.667 50.452 C 116.483 50.404,116.333 50.424,116.333 50.498 M11.333 51.657 C 11.333 51.744,11.181 51.785,10.996 51.749 C 10.810 51.713,10.702 51.755,10.755 51.842 C 10.917 52.104,11.667 52.028,11.667 51.750 C 11.667 51.612,11.592 51.500,11.500 51.500 C 11.408 51.500,11.333 51.571,11.333 51.657 M174.959 52.750 C 175.003 52.979,175.068 53.167,175.103 53.167 C 175.138 53.167,175.167 52.979,175.167 52.750 C 175.167 52.521,175.102 52.333,175.023 52.333 C 174.944 52.333,174.915 52.521,174.959 52.750 M191.050 54.000 C 191.050 54.504,191.081 54.710,191.119 54.458 C 191.158 54.206,191.158 53.794,191.119 53.542 C 191.081 53.290,191.050 53.496,191.050 54.000 M117.238 53.676 C 117.238 54.014,117.414 54.107,117.572 53.852 C 117.622 53.771,117.567 53.625,117.451 53.528 C 117.291 53.396,117.238 53.432,117.238 53.676 M10.566 55.125 C 10.632 55.240,10.607 55.333,10.510 55.333 C 10.413 55.333,10.333 55.408,10.333 55.500 C 10.333 55.592,10.439 55.667,10.569 55.667 C 10.817 55.667,10.830 55.266,10.589 55.046 C 10.511 54.975,10.501 55.010,10.566 55.125 M127.333 56.083 C 127.333 56.313,127.408 56.500,127.500 56.500 C 127.592 56.500,127.667 56.313,127.667 56.083 C 127.667 55.854,127.592 55.667,127.500 55.667 C 127.408 55.667,127.333 55.854,127.333 56.083 M118.000 56.736 C 118.000 57.150,118.257 57.343,118.625 57.208 C 119.042 57.054,118.870 56.333,118.417 56.333 C 118.087 56.333,118.000 56.418,118.000 56.736 M9.833 58.320 C 9.833 58.954,9.788 59.591,9.732 59.736 C 9.677 59.881,9.704 60.000,9.793 60.000 C 9.882 60.000,9.969 59.367,9.986 58.583 C 10.003 57.804,9.976 57.167,9.925 57.167 C 9.875 57.167,9.833 57.686,9.833 58.320 M118.129 57.529 C 118.274 57.674,118.277 57.784,118.139 57.950 C 118.036 58.074,117.991 58.213,118.037 58.259 C 118.083 58.306,118.252 58.145,118.411 57.901 C 118.571 57.658,118.618 57.510,118.517 57.573 C 118.416 57.635,118.333 57.607,118.333 57.510 C 118.333 57.413,118.243 57.333,118.133 57.333 C 117.980 57.333,117.979 57.379,118.129 57.529 M324.750 57.833 L 324.250 57.961 324.698 57.980 C 324.945 57.991,325.193 57.925,325.250 57.833 C 325.307 57.742,325.330 57.676,325.302 57.686 C 325.273 57.697,325.025 57.763,324.750 57.833 M174.853 59.208 C 174.906 60.214,175.127 60.590,175.147 59.708 C 175.158 59.223,175.092 58.833,175.000 58.833 C 174.908 58.833,174.842 59.002,174.853 59.208 M138.000 60.750 C 138.000 61.083,138.083 61.167,138.417 61.167 C 138.750 61.167,138.833 61.083,138.833 60.750 C 138.833 60.417,138.750 60.333,138.417 60.333 C 138.083 60.333,138.000 60.417,138.000 60.750 M118.833 66.578 C 118.833 66.696,119.019 66.792,119.247 66.792 C 119.719 66.792,119.671 66.584,119.169 66.452 C 118.962 66.398,118.833 66.446,118.833 66.578 M191.056 72.000 C 191.056 72.688,191.085 72.969,191.121 72.625 C 191.157 72.281,191.157 71.719,191.121 71.375 C 191.085 71.031,191.056 71.313,191.056 72.000 M160.708 71.119 C 160.960 71.158,161.373 71.158,161.625 71.119 C 161.877 71.081,161.671 71.050,161.167 71.050 C 160.662 71.050,160.456 71.081,160.708 71.119 M248.542 71.115 C 248.702 71.157,248.965 71.157,249.125 71.115 C 249.285 71.073,249.154 71.039,248.833 71.039 C 248.512 71.039,248.381 71.073,248.542 71.115 M252.542 71.115 C 252.702 71.157,252.965 71.157,253.125 71.115 C 253.285 71.073,253.154 71.039,252.833 71.039 C 252.512 71.039,252.381 71.073,252.542 71.115 M174.939 73.542 C 175.082 75.149,175.167 75.174,175.167 73.611 C 175.167 72.864,175.097 72.333,174.999 72.333 C 174.892 72.333,174.870 72.770,174.939 73.542 M320.803 72.836 C 320.540 73.125,320.540 73.143,320.812 73.122 C 320.971 73.111,321.111 72.966,321.123 72.800 C 321.150 72.445,321.159 72.444,320.803 72.836 M210.988 76.333 C 210.935 77.662,210.916 78.781,210.946 78.819 C 211.126 79.051,211.171 78.445,211.130 76.315 L 211.083 73.917 210.988 76.333 M190.969 76.042 C 190.930 76.248,190.951 76.604,191.016 76.833 C 191.106 77.153,191.137 77.066,191.150 76.458 C 191.168 75.616,191.084 75.424,190.969 76.042 M291.379 75.805 C 291.266 75.875,291.241 76.017,291.319 76.143 C 291.423 76.313,291.478 76.297,291.564 76.073 C 291.697 75.727,291.640 75.644,291.379 75.805 M174.959 76.750 C 175.003 76.979,175.068 77.167,175.103 77.167 C 175.138 77.167,175.167 76.979,175.167 76.750 C 175.167 76.521,175.102 76.333,175.023 76.333 C 174.944 76.333,174.915 76.521,174.959 76.750 M325.678 76.458 C 325.720 76.907,325.976 77.218,325.953 76.792 C 325.939 76.540,325.869 76.333,325.797 76.333 C 325.725 76.333,325.672 76.390,325.678 76.458 M226.000 78.417 C 226.000 78.750,226.083 78.833,226.417 78.833 C 226.750 78.833,226.833 78.750,226.833 78.417 C 226.833 78.083,226.750 78.000,226.417 78.000 C 226.083 78.000,226.000 78.083,226.000 78.417 M325.890 79.250 C 325.891 79.983,325.920 80.263,325.956 79.871 C 325.991 79.479,325.990 78.879,325.954 78.537 C 325.919 78.196,325.890 78.517,325.890 79.250 M12.500 81.240 C 12.500 81.461,12.972 81.647,13.046 81.455 C 13.096 81.324,13.002 81.225,12.815 81.211 C 12.642 81.198,12.500 81.211,12.500 81.240 M175.050 82.000 C 175.050 82.504,175.081 82.710,175.119 82.458 C 175.158 82.206,175.158 81.794,175.119 81.542 C 175.081 81.290,175.050 81.496,175.050 82.000 M211.050 82.833 C 211.050 83.337,211.081 83.544,211.119 83.292 C 211.158 83.040,211.158 82.627,211.119 82.375 C 211.081 82.123,211.050 82.329,211.050 82.833 M190.833 83.250 C 190.833 83.479,190.908 83.667,191.000 83.667 C 191.092 83.667,191.167 83.479,191.167 83.250 C 191.167 83.021,191.092 82.833,191.000 82.833 C 190.908 82.833,190.833 83.021,190.833 83.250 M219.833 85.833 L 218.750 85.942 219.750 85.969 C 220.300 85.983,220.862 85.922,221.000 85.833 C 221.137 85.744,221.175 85.684,221.083 85.698 C 220.992 85.712,220.429 85.773,219.833 85.833 M176.042 85.953 C 176.294 85.991,176.706 85.991,176.958 85.953 C 177.210 85.915,177.004 85.883,176.500 85.883 C 175.996 85.883,175.790 85.915,176.042 85.953 M180.208 85.955 C 180.552 85.991,181.115 85.991,181.458 85.955 C 181.802 85.919,181.521 85.889,180.833 85.889 C 180.146 85.889,179.865 85.919,180.208 85.955 M192.208 85.955 C 192.552 85.991,193.115 85.991,193.458 85.955 C 193.802 85.919,193.521 85.889,192.833 85.889 C 192.146 85.889,191.865 85.919,192.208 85.955 M291.333 86.510 C 291.333 86.607,291.240 86.633,291.125 86.569 C 290.965 86.479,290.962 86.500,291.110 86.661 C 291.217 86.776,291.386 86.821,291.485 86.759 C 291.713 86.618,291.723 86.333,291.500 86.333 C 291.408 86.333,291.333 86.413,291.333 86.510 M296.333 86.498 C 296.333 86.613,296.725 86.833,296.930 86.833 C 297.158 86.833,296.944 86.524,296.667 86.452 C 296.483 86.404,296.333 86.424,296.333 86.498 M12.803 88.836 C 12.540 89.125,12.540 89.143,12.812 89.122 C 12.971 89.111,13.111 88.966,13.123 88.800 C 13.150 88.445,13.159 88.444,12.803 88.836 M95.050 106.833 C 95.050 107.337,95.081 107.544,95.119 107.292 C 95.158 107.040,95.158 106.627,95.119 106.375 C 95.081 106.123,95.050 106.329,95.050 106.833 M95.050 111.667 C 95.050 112.171,95.081 112.377,95.119 112.125 C 95.158 111.873,95.158 111.460,95.119 111.208 C 95.081 110.956,95.050 111.162,95.050 111.667 M19.667 114.472 C 19.667 114.696,20.102 114.837,20.722 114.814 L 21.250 114.795 20.661 114.680 C 20.337 114.616,19.981 114.508,19.869 114.439 C 19.758 114.370,19.667 114.385,19.667 114.472 M70.000 127.250 C 70.000 127.583,70.083 127.667,70.417 127.667 C 70.750 127.667,70.833 127.583,70.833 127.250 C 70.833 126.917,70.750 126.833,70.417 126.833 C 70.083 126.833,70.000 126.917,70.000 127.250 M58.566 131.125 C 58.632 131.240,58.607 131.333,58.510 131.333 C 58.413 131.333,58.333 131.408,58.333 131.500 C 58.333 131.592,58.439 131.667,58.569 131.667 C 58.817 131.667,58.830 131.266,58.589 131.046 C 58.511 130.975,58.501 131.010,58.566 131.125 M44.375 131.375 C 44.413 131.490,44.586 131.611,44.759 131.644 C 45.030 131.697,45.043 131.669,44.849 131.436 C 44.585 131.117,44.276 131.078,44.375 131.375 " stroke="none" fill="#d4d4d4" fill-rule="evenodd"></path></g></svg>