<svg data-v-423bf9ae="" xmlns="http://www.w3.org/2000/svg" viewBox="0 0 435 90" width="120" height="40" class="iconLeft"><!----><!----><!----><g data-v-423bf9ae="" id="53c28a5c-915f-4d61-81cd-981682dba6bb" fill="white" transform="matrix(6.309148113138864,0,0,6.309148113138864,102.61828973008602,-9.100946086265125)"><path d="M2.65 11.87L2.65 3.82L1.17 3.82L1.17 13.15L6.97 13.15L6.97 11.87ZM12.38 6.53L12.38 10.57C12.26 11.74 11.48 12.12 10.73 12.12C9.71 12.12 9.28 11.39 9.28 10.31L9.28 6.53L7.86 6.53L7.86 10.63C7.86 12.69 9.19 13.33 10.34 13.33C11.27 13.33 11.99 12.95 12.38 12.37L12.56 13.15L13.80 13.15L13.80 6.53ZM21.57 13.15L23.46 13.15L19.40 7.74L23.01 3.82L21.13 3.82L17.33 8.04L17.33 3.82L15.84 3.82L15.84 13.15L17.33 13.15L17.33 9.99L18.42 8.81ZM28.57 6.53L28.57 10.57C28.45 11.74 27.66 12.12 26.92 12.12C25.90 12.12 25.46 11.39 25.46 10.31L25.46 6.53L24.05 6.53L24.05 10.63C24.05 12.69 25.38 13.33 26.53 13.33C27.46 13.33 28.18 12.95 28.57 12.37L28.74 13.15L29.98 13.15L29.98 6.53ZM38.12 3.82L30.92 3.82L30.92 5.09L33.79 5.09L33.79 13.15L35.28 13.15L35.28 5.09L38.12 5.09ZM45.35 9.70C45.35 7.73 44.03 6.36 42.10 6.36C40.10 6.36 38.69 7.89 38.69 9.84C38.69 11.80 40.09 13.31 42.26 13.31C43.41 13.31 44.38 12.92 44.98 12.25L44.00 11.46C43.58 11.94 43.01 12.19 42.25 12.19C41.01 12.19 40.28 11.33 40.18 10.15L45.35 10.15ZM42.10 7.50C43.14 7.50 43.81 8.12 43.95 9.17L40.24 9.17C40.44 8.17 41.13 7.50 42.10 7.50ZM52.63 13.15L50.08 9.70L52.35 6.53L50.75 6.53L49.28 8.74L47.79 6.53L46.20 6.53L48.49 9.71L45.94 13.15L47.57 13.15L49.28 10.68L50.98 13.15Z"></path></g><!----><g data-v-423bf9ae="" id="3e086f8c-c290-4b81-957a-8de7a0fe9908" transform="matrix(2.8125,0,0,2.8125,0,0)" stroke="none" fill="white"><path d="M16 32c8.837 0 16-7.163 16-16S24.837 0 16 0 0 7.163 0 16s7.163 16 16 16zM14.817 6.421h2v8.886h8.887v2H14.817V6.421zm-5.959.437h2v14.283h14.283v2H8.858V6.858z"></path></g><!----></svg>