<?xml version="1.0" encoding="UTF-8"?>
<svg xmlns="http://www.w3.org/2000/svg" width="55" height="18" viewBox="0 0 130 30" version="1.2">
<defs>
<clipPath id="clip1">
  <path d="M 1.332031 0 L 75 0 L 75 29.03125 L 1.332031 29.03125 Z M 1.332031 0 "/>
</clipPath>
<clipPath id="clip2">
  <path d="M 1.332031 10 L 90.332031 10 L 90.332031 22 L 1.332031 22 Z M 1.332031 10 "/>
</clipPath>
<clipPath id="clip3">
  <path d="M 1.332031 0 L 75 0 L 75 29.03125 L 1.332031 29.03125 Z M 1.332031 0 "/>
</clipPath>
</defs>
<g id="surface1">
<g clip-path="url(#clip1)" clip-rule="nonzero">
<path style=" stroke:none;fill-rule:evenodd;fill:rgb(79.998779%,81.17981%,83.139038%);fill-opacity:1;" d="M 14.074219 0.0351562 C 14.074219 0.0585938 13.882812 0.0742188 13.578125 0.0742188 C 13.09375 0.0742188 12.914062 0.09375 12.992188 0.144531 C 13.097656 0.210938 12.957031 0.257812 12.632812 0.261719 C 12.34375 0.265625 12.292969 0.277344 12.292969 0.328125 C 12.292969 0.378906 12.285156 0.378906 12.253906 0.332031 C 12.222656 0.28125 12.214844 0.28125 12.183594 0.332031 C 12.160156 0.363281 12.144531 0.371094 12.144531 0.351562 C 12.144531 0.332031 12.125 0.34375 12.097656 0.378906 C 12.0625 0.421875 11.988281 0.441406 11.820312 0.445312 C 11.617188 0.453125 11.59375 0.460938 11.632812 0.507812 C 11.675781 0.558594 11.667969 0.558594 11.59375 0.519531 C 11.519531 0.480469 11.511719 0.480469 11.519531 0.539062 C 11.53125 0.597656 11.5 0.609375 11.308594 0.625 C 11.03125 0.648438 10.980469 0.679688 11.007812 0.804688 C 11.019531 0.859375 11.019531 0.882812 11.007812 0.855469 C 10.996094 0.832031 10.921875 0.8125 10.839844 0.8125 C 10.730469 0.8125 10.699219 0.824219 10.71875 0.855469 C 10.742188 0.894531 10.734375 0.894531 10.691406 0.859375 C 10.636719 0.8125 10.46875 0.804688 10.496094 0.851562 C 10.542969 0.925781 10.464844 0.976562 10.324219 0.964844 C 10.230469 0.957031 10.175781 0.964844 10.175781 0.992188 C 10.175781 1.015625 10.160156 1.027344 10.140625 1.015625 C 10.121094 1.003906 10.113281 1.027344 10.121094 1.066406 C 10.132812 1.128906 10.117188 1.140625 10.011719 1.140625 C 9.9375 1.140625 9.878906 1.164062 9.867188 1.199219 C 9.855469 1.226562 9.824219 1.253906 9.800781 1.253906 C 9.773438 1.253906 9.773438 1.238281 9.804688 1.195312 C 9.84375 1.148438 9.84375 1.144531 9.792969 1.164062 C 9.75 1.179688 9.738281 1.21875 9.75 1.304688 C 9.757812 1.367188 9.757812 1.398438 9.746094 1.371094 C 9.722656 1.316406 9.507812 1.308594 9.507812 1.363281 C 9.507812 1.382812 9.484375 1.398438 9.453125 1.398438 C 9.421875 1.398438 9.398438 1.425781 9.398438 1.457031 C 9.398438 1.492188 9.359375 1.511719 9.296875 1.511719 C 9.238281 1.511719 9.148438 1.550781 9.09375 1.601562 C 9.035156 1.652344 8.9375 1.699219 8.855469 1.707031 C 8.78125 1.714844 8.699219 1.746094 8.671875 1.78125 C 8.632812 1.835938 8.535156 1.871094 8.386719 1.875 C 8.351562 1.878906 8.320312 1.898438 8.320312 1.917969 C 8.320312 1.941406 8.347656 1.949219 8.386719 1.9375 C 8.449219 1.917969 8.449219 1.917969 8.386719 1.964844 C 8.351562 1.992188 8.332031 2.027344 8.347656 2.042969 C 8.363281 2.054688 8.34375 2.054688 8.308594 2.042969 C 8.230469 2.011719 8.125 2.09375 8.152344 2.160156 C 8.164062 2.191406 8.140625 2.210938 8.085938 2.214844 C 7.863281 2.222656 7.824219 2.234375 7.808594 2.28125 C 7.796875 2.316406 7.808594 2.320312 7.84375 2.300781 C 7.886719 2.273438 7.886719 2.28125 7.84375 2.332031 C 7.816406 2.367188 7.761719 2.394531 7.722656 2.394531 C 7.683594 2.394531 7.652344 2.410156 7.648438 2.433594 C 7.640625 2.503906 7.632812 2.523438 7.605469 2.570312 C 7.585938 2.59375 7.542969 2.617188 7.503906 2.617188 C 7.460938 2.617188 7.429688 2.640625 7.429688 2.671875 C 7.429688 2.710938 7.390625 2.726562 7.300781 2.726562 C 7.230469 2.726562 7.171875 2.742188 7.171875 2.761719 C 7.171875 2.78125 7.140625 2.789062 7.105469 2.773438 C 7.070312 2.761719 7.050781 2.765625 7.066406 2.78125 C 7.113281 2.828125 7.019531 2.957031 6.960938 2.929688 C 6.917969 2.917969 6.910156 2.925781 6.921875 2.964844 C 6.933594 2.996094 6.929688 3.019531 6.910156 3.019531 C 6.894531 3.019531 6.867188 3.054688 6.855469 3.09375 C 6.839844 3.136719 6.808594 3.167969 6.777344 3.167969 C 6.75 3.167969 6.726562 3.191406 6.726562 3.21875 C 6.726562 3.246094 6.683594 3.285156 6.632812 3.308594 C 6.582031 3.332031 6.539062 3.375 6.539062 3.40625 C 6.539062 3.457031 6.515625 3.46875 6.441406 3.460938 C 6.425781 3.457031 6.402344 3.484375 6.382812 3.515625 C 6.363281 3.546875 6.328125 3.574219 6.304688 3.574219 C 6.277344 3.574219 6.28125 3.558594 6.316406 3.539062 C 6.347656 3.515625 6.363281 3.5 6.355469 3.496094 C 6.34375 3.496094 6.304688 3.488281 6.269531 3.480469 C 6.199219 3.46875 6.183594 3.535156 6.242188 3.601562 C 6.269531 3.636719 6.265625 3.636719 6.238281 3.613281 C 6.15625 3.546875 5.964844 3.691406 6 3.789062 C 6.011719 3.8125 6.003906 3.828125 5.984375 3.816406 C 5.964844 3.804688 5.917969 3.835938 5.875 3.890625 C 5.835938 3.941406 5.769531 3.984375 5.730469 3.988281 C 5.691406 3.992188 5.660156 4.015625 5.660156 4.039062 C 5.660156 4.066406 5.679688 4.078125 5.699219 4.066406 C 5.722656 4.054688 5.679688 4.105469 5.601562 4.179688 C 5.519531 4.257812 5.472656 4.332031 5.484375 4.359375 C 5.5 4.382812 5.5 4.390625 5.484375 4.378906 C 5.441406 4.34375 5.308594 4.492188 5.335938 4.539062 C 5.355469 4.566406 5.347656 4.570312 5.316406 4.550781 C 5.277344 4.527344 5.269531 4.542969 5.285156 4.613281 C 5.300781 4.695312 5.289062 4.707031 5.214844 4.699219 C 5.121094 4.6875 5.105469 4.714844 5.167969 4.777344 C 5.199219 4.808594 5.195312 4.828125 5.164062 4.847656 C 5.132812 4.863281 5.125 4.859375 5.144531 4.832031 C 5.15625 4.808594 5.152344 4.789062 5.132812 4.789062 C 5.113281 4.789062 5.085938 4.824219 5.074219 4.863281 C 5.058594 4.902344 5.027344 4.9375 4.996094 4.9375 C 4.96875 4.9375 4.941406 4.960938 4.941406 4.988281 C 4.941406 5.011719 4.902344 5.054688 4.851562 5.078125 C 4.800781 5.101562 4.757812 5.144531 4.757812 5.175781 C 4.757812 5.207031 4.742188 5.234375 4.71875 5.238281 C 4.699219 5.238281 4.664062 5.242188 4.636719 5.246094 C 4.609375 5.25 4.59375 5.28125 4.601562 5.316406 C 4.609375 5.351562 4.589844 5.378906 4.554688 5.378906 C 4.523438 5.378906 4.496094 5.394531 4.496094 5.414062 C 4.496094 5.433594 4.472656 5.441406 4.441406 5.429688 C 4.410156 5.417969 4.386719 5.421875 4.390625 5.4375 C 4.414062 5.566406 4.378906 5.789062 4.339844 5.777344 C 4.289062 5.757812 4.199219 5.832031 4.199219 5.894531 C 4.199219 5.914062 4.175781 5.933594 4.144531 5.933594 C 4.113281 5.933594 4.085938 5.949219 4.085938 5.96875 C 4.082031 5.988281 4.074219 6.023438 4.070312 6.042969 C 4.066406 6.0625 4.058594 6.121094 4.058594 6.171875 C 4.054688 6.226562 4.03125 6.261719 3.996094 6.261719 C 3.964844 6.261719 3.941406 6.28125 3.941406 6.300781 C 3.941406 6.324219 3.925781 6.332031 3.90625 6.320312 C 3.886719 6.308594 3.875 6.332031 3.886719 6.375 C 3.894531 6.425781 3.878906 6.449219 3.832031 6.449219 C 3.761719 6.449219 3.675781 6.527344 3.683594 6.582031 C 3.707031 6.710938 3.671875 6.855469 3.605469 6.890625 C 3.546875 6.921875 3.539062 6.917969 3.558594 6.863281 C 3.570312 6.828125 3.570312 6.808594 3.554688 6.820312 C 3.53125 6.84375 3.507812 6.925781 3.496094 7.011719 C 3.496094 7.03125 3.472656 7.035156 3.441406 7.023438 C 3.359375 6.992188 3.300781 7.097656 3.316406 7.238281 C 3.324219 7.308594 3.324219 7.359375 3.3125 7.347656 C 3.269531 7.304688 3.160156 7.464844 3.160156 7.570312 C 3.160156 7.660156 3.140625 7.699219 3.070312 7.730469 C 2.996094 7.765625 2.976562 7.800781 2.976562 7.902344 C 2.976562 7.988281 2.957031 8.03125 2.925781 8.03125 C 2.867188 8.03125 2.816406 8.132812 2.847656 8.183594 C 2.859375 8.203125 2.851562 8.214844 2.828125 8.214844 C 2.808594 8.214844 2.789062 8.265625 2.789062 8.324219 C 2.789062 8.414062 2.777344 8.429688 2.726562 8.410156 C 2.683594 8.394531 2.675781 8.402344 2.695312 8.4375 C 2.71875 8.472656 2.710938 8.480469 2.664062 8.460938 C 2.625 8.449219 2.605469 8.457031 2.605469 8.484375 C 2.628906 8.640625 2.597656 8.800781 2.546875 8.820312 C 2.507812 8.835938 2.496094 8.828125 2.515625 8.796875 C 2.535156 8.765625 2.523438 8.769531 2.480469 8.800781 C 2.4375 8.835938 2.417969 8.910156 2.417969 9.046875 C 2.417969 9.277344 2.394531 9.359375 2.320312 9.359375 C 2.285156 9.359375 2.269531 9.414062 2.269531 9.578125 C 2.269531 9.75 2.257812 9.800781 2.214844 9.800781 C 2.183594 9.800781 2.160156 9.816406 2.160156 9.839844 C 2.160156 9.859375 2.144531 9.871094 2.128906 9.859375 C 2.113281 9.851562 2.097656 9.953125 2.089844 10.085938 C 2.078125 10.355469 2.0625 10.402344 2.003906 10.367188 C 1.980469 10.351562 1.972656 10.359375 1.988281 10.382812 C 2 10.40625 1.984375 10.4375 1.953125 10.457031 C 1.90625 10.480469 1.894531 10.535156 1.90625 10.695312 C 1.910156 10.808594 1.910156 10.898438 1.898438 10.898438 C 1.761719 10.886719 1.675781 11.019531 1.757812 11.117188 C 1.785156 11.152344 1.785156 11.164062 1.753906 11.164062 C 1.71875 11.164062 1.710938 11.25 1.71875 11.472656 C 1.730469 11.773438 1.730469 11.78125 1.648438 11.773438 C 1.558594 11.761719 1.542969 11.789062 1.605469 11.851562 C 1.632812 11.882812 1.632812 11.902344 1.597656 11.921875 C 1.570312 11.9375 1.5625 11.933594 1.578125 11.90625 C 1.59375 11.882812 1.589844 11.863281 1.566406 11.863281 C 1.5 11.863281 1.515625 12.996094 1.578125 13.011719 C 1.625 13.023438 1.625 13.03125 1.578125 13.074219 C 1.539062 13.109375 1.527344 13.109375 1.527344 13.0625 C 1.527344 13.03125 1.511719 13.007812 1.492188 13.007812 C 1.46875 13.007812 1.453125 13.324219 1.453125 13.890625 L 1.453125 14.777344 L 2.457031 14.769531 C 3.265625 14.761719 3.457031 14.75 3.441406 14.710938 C 3.433594 14.6875 3.4375 14.664062 3.460938 14.664062 C 3.480469 14.664062 3.496094 14.4375 3.496094 14.09375 L 3.496094 13.523438 L 3.589844 13.523438 C 3.6875 13.523438 3.710938 13.453125 3.632812 13.378906 C 3.597656 13.34375 3.601562 13.328125 3.644531 13.300781 C 3.679688 13.277344 3.683594 13.265625 3.652344 13.265625 C 3.628906 13.265625 3.605469 13.246094 3.605469 13.226562 C 3.605469 13.203125 3.621094 13.195312 3.640625 13.207031 C 3.660156 13.21875 3.664062 13.195312 3.65625 13.152344 C 3.621094 13.03125 3.683594 12.214844 3.722656 12.273438 C 3.75 12.316406 3.753906 12.316406 3.753906 12.273438 C 3.753906 12.246094 3.777344 12.234375 3.804688 12.242188 C 3.847656 12.257812 3.859375 12.195312 3.863281 11.929688 C 3.867188 11.660156 3.882812 11.582031 3.933594 11.546875 C 3.992188 11.5 3.992188 11.496094 3.933594 11.496094 C 3.898438 11.496094 3.863281 11.480469 3.851562 11.460938 C 3.839844 11.445312 3.859375 11.433594 3.894531 11.4375 C 3.972656 11.449219 4.09375 11.34375 4.023438 11.320312 C 4 11.3125 3.976562 11.289062 3.976562 11.269531 C 3.976562 11.25 3.996094 11.242188 4.015625 11.257812 C 4.039062 11.269531 4.050781 11.195312 4.050781 11.054688 C 4.050781 10.933594 4.066406 10.835938 4.078125 10.835938 C 4.171875 10.851562 4.191406 10.8125 4.195312 10.605469 C 4.203125 10.347656 4.222656 10.300781 4.300781 10.332031 C 4.339844 10.347656 4.351562 10.335938 4.335938 10.296875 C 4.324219 10.269531 4.332031 10.242188 4.351562 10.242188 C 4.371094 10.242188 4.386719 10.144531 4.386719 10.023438 C 4.386719 9.808594 4.390625 9.800781 4.484375 9.800781 C 4.554688 9.800781 4.570312 9.789062 4.542969 9.753906 C 4.488281 9.683594 4.53125 9.433594 4.59375 9.457031 C 4.695312 9.496094 4.761719 9.390625 4.753906 9.207031 C 4.746094 9.109375 4.757812 9.015625 4.773438 9 C 4.789062 8.984375 4.796875 8.996094 4.789062 9.023438 C 4.78125 9.054688 4.804688 9.082031 4.835938 9.089844 C 4.910156 9.109375 4.960938 8.988281 4.898438 8.949219 C 4.859375 8.921875 4.859375 8.917969 4.902344 8.917969 C 4.933594 8.917969 4.945312 8.886719 4.933594 8.828125 C 4.925781 8.777344 4.925781 8.738281 4.9375 8.738281 C 5.011719 8.746094 5.101562 8.722656 5.0625 8.707031 C 5.039062 8.699219 5.015625 8.671875 5.015625 8.652344 C 5.015625 8.632812 5.03125 8.628906 5.050781 8.640625 C 5.070312 8.652344 5.09375 8.597656 5.097656 8.519531 C 5.109375 8.398438 5.121094 8.382812 5.203125 8.390625 C 5.273438 8.398438 5.285156 8.394531 5.238281 8.363281 C 5.199219 8.339844 5.199219 8.328125 5.230469 8.328125 C 5.257812 8.328125 5.277344 8.304688 5.273438 8.28125 C 5.25 8.101562 5.277344 8.03125 5.375 8.03125 C 5.457031 8.03125 5.464844 8.023438 5.425781 7.976562 C 5.390625 7.933594 5.394531 7.910156 5.441406 7.863281 C 5.484375 7.820312 5.5 7.816406 5.5 7.855469 C 5.5 7.894531 5.507812 7.894531 5.535156 7.851562 C 5.550781 7.824219 5.585938 7.8125 5.609375 7.828125 C 5.632812 7.839844 5.648438 7.839844 5.644531 7.824219 C 5.621094 7.691406 5.65625 7.515625 5.703125 7.515625 C 5.734375 7.515625 5.757812 7.492188 5.757812 7.457031 C 5.757812 7.425781 5.777344 7.414062 5.804688 7.429688 C 5.832031 7.445312 5.839844 7.433594 5.824219 7.398438 C 5.808594 7.355469 5.828125 7.332031 5.886719 7.316406 C 5.953125 7.300781 5.972656 7.269531 5.976562 7.164062 C 5.980469 7.023438 6.046875 6.929688 6.121094 6.953125 C 6.148438 6.964844 6.167969 6.933594 6.167969 6.878906 C 6.167969 6.828125 6.195312 6.777344 6.226562 6.765625 C 6.257812 6.753906 6.273438 6.757812 6.261719 6.78125 C 6.246094 6.800781 6.253906 6.816406 6.277344 6.816406 C 6.296875 6.816406 6.324219 6.773438 6.339844 6.722656 C 6.351562 6.671875 6.378906 6.632812 6.402344 6.632812 C 6.425781 6.628906 6.472656 6.578125 6.503906 6.511719 C 6.539062 6.445312 6.597656 6.390625 6.636719 6.382812 C 6.703125 6.375 6.703125 6.378906 6.632812 6.410156 L 6.558594 6.449219 L 6.632812 6.4375 C 6.695312 6.429688 6.707031 6.402344 6.707031 6.257812 C 6.707031 6.164062 6.714844 6.085938 6.726562 6.085938 C 6.800781 6.09375 6.882812 6.070312 6.84375 6.054688 C 6.820312 6.042969 6.800781 6.019531 6.800781 6 C 6.800781 5.980469 6.8125 5.972656 6.832031 5.984375 C 6.851562 5.996094 6.875 5.980469 6.886719 5.945312 C 6.902344 5.914062 6.933594 5.894531 6.960938 5.90625 C 6.996094 5.921875 7.023438 5.894531 7.039062 5.835938 C 7.054688 5.773438 7.085938 5.746094 7.148438 5.746094 C 7.21875 5.746094 7.242188 5.726562 7.25 5.648438 C 7.261719 5.574219 7.285156 5.542969 7.347656 5.53125 C 7.402344 5.527344 7.429688 5.5 7.421875 5.460938 C 7.414062 5.417969 7.441406 5.394531 7.496094 5.386719 C 7.558594 5.375 7.578125 5.351562 7.570312 5.292969 C 7.566406 5.25 7.582031 5.210938 7.605469 5.210938 C 7.765625 5.191406 7.78125 5.1875 7.734375 5.171875 C 7.710938 5.160156 7.691406 5.136719 7.691406 5.117188 C 7.691406 5.097656 7.707031 5.089844 7.722656 5.101562 C 7.742188 5.113281 7.761719 5.105469 7.769531 5.085938 C 7.777344 5.066406 7.84375 5.046875 7.921875 5.042969 C 8 5.035156 8.0625 5.019531 8.0625 5 C 8.0625 4.984375 8.078125 4.980469 8.097656 4.992188 C 8.117188 5.003906 8.125 4.980469 8.117188 4.9375 C 8.109375 4.894531 8.121094 4.863281 8.152344 4.863281 C 8.179688 4.863281 8.226562 4.820312 8.261719 4.769531 C 8.296875 4.722656 8.355469 4.679688 8.398438 4.679688 C 8.453125 4.679688 8.472656 4.664062 8.457031 4.621094 C 8.441406 4.585938 8.449219 4.574219 8.476562 4.589844 C 8.503906 4.609375 8.511719 4.59375 8.5 4.542969 C 8.484375 4.484375 8.496094 4.472656 8.5625 4.488281 C 8.628906 4.5 8.652344 4.484375 8.660156 4.414062 C 8.671875 4.339844 8.695312 4.328125 8.839844 4.328125 C 8.996094 4.328125 9.007812 4.324219 9.007812 4.234375 C 9.007812 4.167969 9.023438 4.140625 9.074219 4.144531 C 9.113281 4.144531 9.164062 4.113281 9.1875 4.070312 C 9.210938 4.03125 9.234375 3.992188 9.238281 3.984375 C 9.242188 3.976562 9.3125 3.964844 9.386719 3.960938 C 9.5 3.957031 9.53125 3.941406 9.539062 3.875 C 9.546875 3.832031 9.585938 3.777344 9.625 3.753906 C 9.667969 3.734375 9.691406 3.695312 9.683594 3.671875 C 9.664062 3.625 9.804688 3.597656 10.027344 3.601562 C 10.078125 3.601562 10.101562 3.59375 10.078125 3.585938 C 10.054688 3.578125 10.042969 3.539062 10.054688 3.5 C 10.066406 3.460938 10.09375 3.441406 10.125 3.453125 C 10.152344 3.460938 10.238281 3.460938 10.316406 3.445312 C 10.394531 3.429688 10.433594 3.410156 10.410156 3.398438 C 10.382812 3.390625 10.363281 3.367188 10.363281 3.347656 C 10.363281 3.328125 10.378906 3.320312 10.398438 3.335938 C 10.421875 3.347656 10.4375 3.339844 10.4375 3.316406 C 10.4375 3.296875 10.484375 3.277344 10.539062 3.277344 C 10.597656 3.277344 10.667969 3.257812 10.695312 3.234375 C 10.734375 3.195312 10.738281 3.195312 10.71875 3.234375 C 10.703125 3.257812 10.710938 3.277344 10.730469 3.277344 C 10.753906 3.277344 10.78125 3.238281 10.792969 3.1875 C 10.808594 3.117188 10.84375 3.097656 10.949219 3.085938 C 11.054688 3.078125 11.085938 3.0625 11.082031 3.011719 C 11.078125 2.957031 11.085938 2.953125 11.132812 2.992188 C 11.183594 3.03125 11.1875 3.03125 11.167969 2.976562 C 11.144531 2.90625 11.246094 2.890625 11.582031 2.910156 C 11.691406 2.917969 11.703125 2.90625 11.691406 2.832031 C 11.679688 2.753906 11.695312 2.742188 11.859375 2.734375 C 12.015625 2.722656 12.035156 2.714844 12.027344 2.644531 C 12.015625 2.570312 12.027344 2.570312 12.300781 2.574219 C 12.519531 2.582031 12.589844 2.570312 12.589844 2.535156 C 12.589844 2.5 12.601562 2.5 12.625 2.542969 C 12.65625 2.585938 12.664062 2.585938 12.664062 2.546875 C 12.664062 2.515625 12.6875 2.507812 12.726562 2.519531 C 12.777344 2.539062 12.777344 2.535156 12.734375 2.480469 C 12.699219 2.4375 12.699219 2.425781 12.730469 2.445312 C 12.753906 2.460938 12.773438 2.457031 12.773438 2.433594 C 12.773438 2.410156 12.851562 2.394531 12.945312 2.394531 C 13.039062 2.394531 13.148438 2.375 13.191406 2.355469 C 13.246094 2.324219 13.261719 2.324219 13.242188 2.355469 C 13.226562 2.375 13.226562 2.394531 13.238281 2.394531 C 13.253906 2.394531 13.296875 2.375 13.339844 2.355469 C 13.394531 2.324219 13.410156 2.324219 13.390625 2.355469 C 13.375 2.375 13.382812 2.394531 13.402344 2.394531 C 13.472656 2.394531 13.445312 2.285156 13.378906 2.28125 C 13.328125 2.28125 13.332031 2.273438 13.394531 2.246094 C 13.4375 2.230469 13.699219 2.210938 13.972656 2.203125 C 14.433594 2.195312 14.476562 2.1875 14.503906 2.117188 C 14.550781 2.019531 16.921875 1.980469 16.882812 2.078125 C 16.871094 2.109375 16.890625 2.152344 16.921875 2.179688 C 16.976562 2.222656 16.980469 2.222656 16.953125 2.171875 C 16.921875 2.125 16.925781 2.125 16.984375 2.171875 C 17.035156 2.214844 17.054688 2.214844 17.09375 2.175781 C 17.128906 2.136719 17.128906 2.132812 17.089844 2.152344 C 17.066406 2.167969 17.042969 2.160156 17.042969 2.140625 C 17.042969 2.089844 17.09375 2.089844 17.144531 2.140625 C 17.171875 2.167969 17.351562 2.179688 17.652344 2.175781 C 18.046875 2.171875 18.121094 2.179688 18.121094 2.226562 C 18.121094 2.324219 18.355469 2.402344 18.621094 2.390625 C 18.765625 2.382812 18.859375 2.390625 18.855469 2.414062 C 18.847656 2.472656 18.90625 2.578125 18.945312 2.578125 C 18.960938 2.578125 18.96875 2.558594 18.953125 2.53125 C 18.933594 2.496094 18.9375 2.496094 18.976562 2.53125 C 19.003906 2.558594 19.09375 2.578125 19.175781 2.578125 C 19.28125 2.578125 19.339844 2.597656 19.367188 2.644531 C 19.398438 2.691406 19.46875 2.710938 19.644531 2.71875 C 19.925781 2.734375 19.9375 2.738281 19.914062 2.847656 C 19.898438 2.914062 19.902344 2.917969 19.9375 2.875 C 19.960938 2.835938 19.976562 2.832031 19.976562 2.863281 C 19.976562 2.890625 19.996094 2.910156 20.015625 2.910156 C 20.039062 2.910156 20.042969 2.890625 20.027344 2.863281 C 20.007812 2.828125 20.011719 2.828125 20.054688 2.863281 C 20.082031 2.890625 20.132812 2.910156 20.164062 2.910156 C 20.199219 2.910156 20.238281 2.949219 20.25 2.996094 C 20.269531 3.070312 20.296875 3.078125 20.523438 3.089844 C 20.660156 3.09375 20.78125 3.113281 20.785156 3.132812 C 20.804688 3.1875 21.046875 3.289062 21.105469 3.265625 C 21.144531 3.253906 21.152344 3.261719 21.140625 3.300781 C 21.128906 3.328125 21.140625 3.351562 21.164062 3.351562 C 21.1875 3.351562 21.195312 3.371094 21.179688 3.394531 C 21.164062 3.421875 21.167969 3.429688 21.191406 3.414062 C 21.214844 3.398438 21.246094 3.40625 21.257812 3.425781 C 21.269531 3.449219 21.296875 3.457031 21.3125 3.445312 C 21.332031 3.433594 21.355469 3.441406 21.367188 3.460938 C 21.382812 3.484375 21.375 3.5 21.359375 3.5 C 21.339844 3.5 21.324219 3.523438 21.324219 3.546875 C 21.324219 3.574219 21.359375 3.59375 21.402344 3.59375 C 21.582031 3.578125 21.703125 3.628906 21.691406 3.714844 C 21.683594 3.777344 21.699219 3.796875 21.757812 3.796875 C 21.8125 3.796875 21.828125 3.78125 21.8125 3.75 C 21.789062 3.710938 21.792969 3.710938 21.835938 3.75 C 21.863281 3.773438 21.914062 3.796875 21.953125 3.796875 C 21.988281 3.796875 22.019531 3.820312 22.019531 3.851562 C 22.019531 3.878906 22.035156 3.90625 22.058594 3.90625 C 22.078125 3.90625 22.085938 3.921875 22.074219 3.9375 C 22.066406 3.957031 22.089844 3.964844 22.128906 3.953125 C 22.199219 3.933594 22.222656 3.96875 22.207031 4.078125 C 22.203125 4.097656 22.230469 4.128906 22.261719 4.140625 C 22.300781 4.15625 22.3125 4.148438 22.292969 4.117188 C 22.273438 4.082031 22.277344 4.082031 22.316406 4.117188 C 22.34375 4.144531 22.421875 4.164062 22.488281 4.164062 C 22.585938 4.164062 22.605469 4.175781 22.59375 4.234375 C 22.582031 4.304688 22.664062 4.367188 22.726562 4.328125 C 22.757812 4.308594 22.773438 4.355469 22.765625 4.445312 C 22.761719 4.472656 22.789062 4.484375 22.832031 4.476562 C 22.886719 4.464844 22.910156 4.488281 22.929688 4.570312 C 22.949219 4.671875 22.964844 4.679688 23.117188 4.679688 C 23.277344 4.679688 23.304688 4.707031 23.285156 4.835938 C 23.28125 4.851562 23.316406 4.863281 23.359375 4.863281 C 23.402344 4.863281 23.460938 4.890625 23.484375 4.925781 C 23.511719 4.960938 23.546875 4.972656 23.574219 4.957031 C 23.613281 4.933594 23.613281 4.921875 23.570312 4.894531 C 23.53125 4.863281 23.53125 4.859375 23.574219 4.871094 C 23.601562 4.878906 23.628906 4.933594 23.636719 4.992188 C 23.644531 5.050781 23.675781 5.113281 23.707031 5.128906 C 23.738281 5.148438 23.757812 5.175781 23.75 5.1875 C 23.742188 5.203125 23.777344 5.253906 23.828125 5.304688 C 23.878906 5.355469 23.910156 5.378906 23.894531 5.351562 C 23.878906 5.320312 23.890625 5.3125 23.929688 5.328125 C 23.980469 5.347656 24 5.390625 23.988281 5.460938 C 23.988281 5.476562 24 5.488281 24.011719 5.484375 C 24.085938 5.472656 24.109375 5.496094 24.058594 5.53125 C 24.015625 5.5625 24.023438 5.566406 24.097656 5.554688 C 24.183594 5.542969 24.191406 5.550781 24.1875 5.644531 C 24.175781 5.765625 24.191406 5.769531 24.296875 5.683594 C 24.339844 5.648438 24.355469 5.644531 24.332031 5.671875 C 24.28125 5.726562 24.355469 5.828125 24.476562 5.871094 C 24.511719 5.882812 24.542969 5.917969 24.542969 5.945312 C 24.542969 5.972656 24.570312 6.007812 24.601562 6.019531 C 24.632812 6.03125 24.652344 6.054688 24.640625 6.070312 C 24.632812 6.085938 24.667969 6.140625 24.71875 6.191406 C 24.769531 6.242188 24.800781 6.261719 24.785156 6.238281 C 24.769531 6.207031 24.78125 6.199219 24.820312 6.210938 C 24.871094 6.234375 24.890625 6.277344 24.878906 6.347656 C 24.878906 6.363281 24.890625 6.371094 24.90625 6.371094 C 24.976562 6.359375 25 6.378906 24.949219 6.410156 C 24.90625 6.441406 24.910156 6.445312 24.972656 6.449219 C 25.015625 6.449219 25.074219 6.472656 25.097656 6.503906 C 25.132812 6.542969 25.132812 6.558594 25.105469 6.558594 C 25.082031 6.558594 25.0625 6.601562 25.0625 6.652344 C 25.0625 6.707031 25.082031 6.742188 25.117188 6.742188 C 25.148438 6.742188 25.171875 6.757812 25.171875 6.78125 C 25.171875 6.800781 25.199219 6.816406 25.226562 6.816406 C 25.261719 6.816406 25.273438 6.84375 25.265625 6.886719 C 25.253906 6.957031 25.335938 7.019531 25.398438 6.980469 C 25.433594 6.960938 25.449219 7.011719 25.4375 7.101562 C 25.433594 7.125 25.460938 7.136719 25.507812 7.128906 C 25.5625 7.117188 25.582031 7.136719 25.585938 7.195312 C 25.589844 7.242188 25.59375 7.292969 25.597656 7.3125 C 25.605469 7.332031 25.609375 7.390625 25.613281 7.4375 C 25.617188 7.507812 25.636719 7.523438 25.707031 7.507812 C 25.785156 7.492188 25.796875 7.503906 25.78125 7.574219 C 25.773438 7.625 25.789062 7.664062 25.824219 7.679688 C 25.863281 7.691406 25.875 7.683594 25.855469 7.652344 C 25.832031 7.617188 25.839844 7.617188 25.882812 7.65625 C 25.914062 7.679688 25.949219 7.691406 25.960938 7.683594 C 25.96875 7.671875 25.96875 7.710938 25.960938 7.769531 C 25.953125 7.828125 25.964844 7.886719 25.988281 7.902344 C 26.042969 7.9375 26.039062 8.003906 25.980469 7.972656 C 25.953125 7.957031 25.949219 7.960938 25.964844 7.980469 C 25.980469 8 26.011719 8.015625 26.03125 8.019531 C 26.050781 8.019531 26.078125 8.023438 26.097656 8.027344 C 26.113281 8.03125 26.140625 8.082031 26.152344 8.144531 C 26.167969 8.222656 26.1875 8.25 26.222656 8.230469 C 26.257812 8.207031 26.257812 8.214844 26.21875 8.261719 C 26.1875 8.300781 26.183594 8.328125 26.210938 8.34375 C 26.234375 8.355469 26.25 8.347656 26.25 8.320312 C 26.25 8.296875 26.273438 8.308594 26.300781 8.347656 C 26.328125 8.382812 26.34375 8.4375 26.335938 8.464844 C 26.324219 8.492188 26.34375 8.511719 26.375 8.511719 C 26.410156 8.511719 26.4375 8.527344 26.4375 8.550781 C 26.4375 8.570312 26.449219 8.582031 26.464844 8.570312 C 26.480469 8.5625 26.488281 8.617188 26.480469 8.691406 C 26.46875 8.789062 26.484375 8.84375 26.53125 8.882812 C 26.570312 8.914062 26.585938 8.917969 26.570312 8.890625 C 26.550781 8.859375 26.5625 8.851562 26.601562 8.867188 C 26.636719 8.878906 26.660156 8.933594 26.660156 9.011719 C 26.660156 9.113281 26.671875 9.136719 26.730469 9.136719 C 26.78125 9.136719 26.796875 9.15625 26.78125 9.195312 C 26.769531 9.230469 26.777344 9.269531 26.804688 9.28125 C 26.828125 9.296875 26.847656 9.390625 26.847656 9.496094 C 26.851562 9.707031 26.878906 9.765625 26.980469 9.773438 C 27.035156 9.777344 27.046875 9.800781 27.039062 9.871094 C 27.019531 10 27.089844 10.167969 27.160156 10.167969 C 27.210938 10.167969 27.242188 10.4375 27.21875 10.636719 C 27.214844 10.664062 27.246094 10.675781 27.289062 10.667969 C 27.359375 10.652344 27.363281 10.671875 27.363281 10.894531 C 27.363281 11.101562 27.375 11.136719 27.433594 11.152344 C 27.53125 11.179688 27.546875 11.222656 27.550781 11.589844 C 27.554688 11.78125 27.570312 11.886719 27.589844 11.859375 C 27.621094 11.8125 27.640625 11.839844 27.628906 11.910156 C 27.625 11.925781 27.648438 11.9375 27.679688 11.9375 C 27.722656 11.9375 27.734375 11.992188 27.734375 12.195312 C 27.734375 12.445312 27.738281 12.453125 27.828125 12.453125 C 27.902344 12.453125 27.921875 12.472656 27.921875 12.546875 C 27.921875 12.632812 27.886719 12.65625 27.777344 12.640625 C 27.734375 12.632812 27.734375 12.640625 27.777344 12.6875 C 27.804688 12.714844 27.84375 12.730469 27.863281 12.71875 C 27.882812 12.707031 27.863281 12.75 27.816406 12.808594 C 27.734375 12.921875 27.757812 13.007812 27.871094 13.007812 C 27.910156 13.007812 27.921875 13.179688 27.921875 13.832031 L 27.921875 14.660156 L 28.039062 14.71875 C 28.199219 14.796875 29.867188 14.800781 29.972656 14.722656 C 30.054688 14.660156 30.070312 12.566406 29.988281 12.5625 C 29.957031 12.5625 29.960938 12.554688 29.992188 12.53125 C 30.058594 12.492188 29.953125 12.445312 29.867188 12.476562 C 29.828125 12.492188 29.8125 12.472656 29.8125 12.402344 C 29.8125 12.347656 29.832031 12.304688 29.851562 12.304688 C 29.917969 12.304688 29.882812 11.449219 29.816406 11.429688 C 29.78125 11.417969 29.777344 11.429688 29.796875 11.464844 C 29.824219 11.507812 29.816406 11.507812 29.765625 11.464844 C 29.714844 11.421875 29.703125 11.351562 29.703125 11.121094 C 29.703125 10.933594 29.6875 10.832031 29.660156 10.832031 C 29.632812 10.832031 29.632812 10.8125 29.667969 10.773438 C 29.691406 10.742188 29.699219 10.722656 29.679688 10.726562 C 29.5625 10.753906 29.515625 10.671875 29.515625 10.445312 C 29.515625 10.265625 29.503906 10.207031 29.457031 10.191406 C 29.417969 10.175781 29.402344 10.140625 29.414062 10.097656 C 29.425781 10.058594 29.421875 10.027344 29.410156 10.027344 C 29.328125 10.039062 29.308594 10.007812 29.324219 9.894531 C 29.335938 9.804688 29.324219 9.765625 29.289062 9.765625 C 29.253906 9.765625 29.25 9.753906 29.285156 9.71875 C 29.367188 9.640625 29.339844 9.507812 29.238281 9.484375 C 29.144531 9.460938 29.136719 9.4375 29.136719 9.191406 C 29.132812 9.132812 29.117188 9.117188 29.054688 9.128906 C 28.984375 9.140625 28.980469 9.128906 28.984375 8.953125 C 28.988281 8.839844 28.976562 8.777344 28.957031 8.789062 C 28.933594 8.804688 28.929688 8.773438 28.945312 8.714844 C 28.964844 8.636719 28.953125 8.613281 28.890625 8.597656 C 28.824219 8.578125 28.8125 8.546875 28.8125 8.417969 C 28.8125 8.257812 28.726562 8.171875 28.628906 8.230469 C 28.609375 8.242188 28.605469 8.21875 28.613281 8.179688 C 28.625 8.136719 28.613281 8.082031 28.589844 8.054688 C 28.5625 8.019531 28.558594 7.996094 28.585938 7.976562 C 28.65625 7.933594 28.628906 7.886719 28.53125 7.886719 C 28.441406 7.886719 28.421875 7.835938 28.429688 7.632812 C 28.433594 7.605469 28.410156 7.59375 28.371094 7.605469 C 28.328125 7.621094 28.332031 7.609375 28.382812 7.566406 C 28.433594 7.527344 28.4375 7.511719 28.398438 7.527344 C 28.308594 7.558594 28.257812 7.507812 28.246094 7.375 C 28.242188 7.3125 28.222656 7.257812 28.199219 7.257812 C 28.179688 7.257812 28.183594 7.242188 28.210938 7.226562 C 28.273438 7.1875 28.171875 7.140625 28.09375 7.167969 C 28.03125 7.195312 27.984375 7.050781 28.046875 7.019531 C 28.066406 7.007812 28.039062 7.007812 27.980469 7.015625 C 27.878906 7.027344 27.875 7.027344 27.894531 6.886719 C 27.910156 6.753906 27.902344 6.730469 27.785156 6.644531 C 27.707031 6.585938 27.671875 6.535156 27.691406 6.507812 C 27.761719 6.414062 27.734375 6.300781 27.640625 6.300781 C 27.558594 6.300781 27.53125 6.265625 27.546875 6.179688 C 27.546875 6.160156 27.539062 6.15625 27.523438 6.164062 C 27.476562 6.191406 27.378906 6.105469 27.347656 6.015625 C 27.332031 5.964844 27.300781 5.941406 27.257812 5.949219 C 27.203125 5.960938 27.191406 5.945312 27.207031 5.875 C 27.238281 5.710938 27.183594 5.609375 27.050781 5.558594 C 26.933594 5.515625 26.929688 5.507812 26.984375 5.460938 C 27.019531 5.433594 27.027344 5.421875 27.003906 5.433594 C 26.980469 5.445312 26.949219 5.4375 26.9375 5.417969 C 26.925781 5.394531 26.878906 5.378906 26.835938 5.378906 C 26.773438 5.378906 26.765625 5.371094 26.800781 5.335938 C 26.867188 5.265625 26.851562 5.230469 26.75 5.230469 C 26.675781 5.230469 26.65625 5.214844 26.652344 5.128906 C 26.652344 5.074219 26.648438 5.019531 26.648438 5.011719 C 26.648438 4.988281 26.519531 4.867188 26.484375 4.855469 C 26.46875 4.847656 26.460938 4.808594 26.464844 4.765625 C 26.476562 4.703125 26.460938 4.691406 26.382812 4.699219 C 26.332031 4.703125 26.289062 4.699219 26.292969 4.683594 C 26.304688 4.601562 26.28125 4.53125 26.25 4.550781 C 26.230469 4.5625 26.210938 4.558594 26.210938 4.539062 C 26.210938 4.519531 26.179688 4.496094 26.136719 4.484375 C 26.097656 4.472656 26.066406 4.441406 26.066406 4.414062 C 26.066406 4.378906 26.074219 4.378906 26.101562 4.421875 C 26.132812 4.46875 26.136719 4.464844 26.136719 4.410156 C 26.136719 4.359375 26.121094 4.347656 26.0625 4.367188 C 26.003906 4.386719 25.980469 4.371094 25.964844 4.316406 C 25.953125 4.273438 25.929688 4.246094 25.910156 4.257812 C 25.894531 4.269531 25.878906 4.261719 25.878906 4.242188 C 25.878906 4.226562 25.84375 4.199219 25.800781 4.1875 C 25.75 4.175781 25.726562 4.148438 25.742188 4.113281 C 25.757812 4.078125 25.726562 4.042969 25.660156 4.011719 C 25.582031 3.976562 25.5625 3.945312 25.574219 3.886719 C 25.585938 3.816406 25.574219 3.804688 25.492188 3.816406 C 25.441406 3.820312 25.398438 3.8125 25.402344 3.800781 C 25.414062 3.71875 25.390625 3.648438 25.359375 3.664062 C 25.339844 3.679688 25.320312 3.671875 25.320312 3.648438 C 25.320312 3.628906 25.304688 3.609375 25.28125 3.609375 C 25.226562 3.609375 25.0625 3.457031 25.0625 3.402344 C 25.0625 3.378906 25.011719 3.339844 24.949219 3.316406 C 24.875 3.285156 24.84375 3.25 24.855469 3.214844 C 24.871094 3.175781 24.859375 3.167969 24.8125 3.183594 C 24.753906 3.203125 24.753906 3.199219 24.816406 3.152344 C 24.878906 3.105469 24.867188 3.101562 24.699219 3.105469 C 24.574219 3.109375 24.519531 3.101562 24.53125 3.070312 C 24.550781 3.015625 24.445312 2.914062 24.335938 2.886719 C 24.25 2.867188 24.246094 2.863281 24.308594 2.8125 C 24.34375 2.78125 24.355469 2.769531 24.332031 2.78125 C 24.308594 2.792969 24.277344 2.785156 24.265625 2.765625 C 24.25 2.742188 24.207031 2.726562 24.160156 2.726562 C 24.101562 2.726562 24.09375 2.714844 24.125 2.683594 C 24.207031 2.601562 24.175781 2.578125 23.988281 2.578125 C 23.828125 2.578125 23.804688 2.570312 23.785156 2.488281 C 23.769531 2.425781 23.742188 2.402344 23.691406 2.414062 C 23.652344 2.421875 23.609375 2.402344 23.597656 2.371094 C 23.585938 2.339844 23.59375 2.328125 23.613281 2.339844 C 23.679688 2.378906 23.652344 2.3125 23.585938 2.265625 C 23.546875 2.234375 23.507812 2.230469 23.480469 2.25 C 23.449219 2.273438 23.445312 2.257812 23.457031 2.1875 C 23.472656 2.121094 23.464844 2.097656 23.433594 2.113281 C 23.410156 2.132812 23.390625 2.117188 23.390625 2.082031 C 23.390625 2.046875 23.371094 2.027344 23.34375 2.039062 C 23.320312 2.046875 23.304688 2.074219 23.308594 2.09375 C 23.3125 2.117188 23.300781 2.136719 23.277344 2.136719 C 23.253906 2.136719 23.246094 2.113281 23.257812 2.082031 C 23.273438 2.042969 23.253906 2.027344 23.1875 2.027344 C 23.121094 2.027344 23.09375 2.007812 23.09375 1.957031 C 23.09375 1.878906 23.027344 1.84375 22.867188 1.84375 C 22.808594 1.84375 22.761719 1.824219 22.761719 1.796875 C 22.757812 1.765625 22.746094 1.769531 22.71875 1.804688 C 22.6875 1.851562 22.683594 1.84375 22.699219 1.777344 C 22.714844 1.703125 22.703125 1.695312 22.554688 1.695312 C 22.445312 1.695312 22.390625 1.679688 22.390625 1.648438 C 22.390625 1.625 22.335938 1.574219 22.273438 1.539062 C 22.199219 1.496094 22.167969 1.453125 22.179688 1.417969 C 22.214844 1.332031 22.097656 1.304688 22.035156 1.386719 C 21.984375 1.453125 21.984375 1.453125 21.980469 1.386719 C 21.980469 1.328125 21.972656 1.324219 21.917969 1.367188 C 21.875 1.402344 21.863281 1.402344 21.882812 1.371094 C 21.898438 1.347656 21.894531 1.328125 21.871094 1.328125 C 21.851562 1.328125 21.832031 1.292969 21.832031 1.253906 C 21.832031 1.210938 21.8125 1.175781 21.785156 1.175781 C 21.761719 1.171875 21.648438 1.164062 21.539062 1.15625 C 21.351562 1.140625 21.257812 1.09375 21.296875 1.027344 C 21.320312 0.992188 21.214844 0.957031 21.085938 0.957031 C 21.027344 0.957031 20.980469 0.9375 20.976562 0.910156 C 20.976562 0.878906 20.96875 0.878906 20.945312 0.914062 C 20.921875 0.953125 20.910156 0.953125 20.894531 0.90625 C 20.882812 0.878906 20.890625 0.84375 20.914062 0.835938 C 20.941406 0.824219 20.832031 0.816406 20.675781 0.8125 C 20.503906 0.8125 20.378906 0.792969 20.363281 0.769531 C 20.34375 0.738281 20.351562 0.734375 20.386719 0.757812 C 20.433594 0.78125 20.433594 0.777344 20.394531 0.730469 C 20.351562 0.679688 20.351562 0.667969 20.394531 0.648438 C 20.417969 0.636719 20.40625 0.628906 20.367188 0.632812 C 20.121094 0.640625 19.902344 0.621094 19.902344 0.585938 C 19.902344 0.488281 19.789062 0.441406 19.558594 0.441406 C 19.324219 0.441406 19.320312 0.441406 19.335938 0.355469 L 19.351562 0.265625 L 18.980469 0.273438 C 18.777344 0.273438 18.617188 0.265625 18.628906 0.25 C 18.636719 0.234375 18.617188 0.222656 18.585938 0.222656 C 18.550781 0.222656 18.535156 0.207031 18.546875 0.1875 C 18.570312 0.148438 18.460938 0.101562 18.414062 0.132812 C 18.394531 0.140625 18.378906 0.132812 18.378906 0.113281 C 18.378906 0.0546875 17.425781 0.0585938 17.402344 0.121094 C 17.390625 0.144531 17.382812 0.125 17.378906 0.0742188 C 17.378906 0 17.371094 -0.0078125 17.335938 0.0351562 C 17.308594 0.078125 17.292969 0.0820312 17.28125 0.046875 C 17.253906 -0.0117188 14.074219 -0.0234375 14.074219 0.0351562 M 9.601562 3.644531 C 9.59375 3.664062 9.601562 3.683594 9.628906 3.691406 C 9.65625 3.703125 9.648438 3.714844 9.609375 3.730469 C 9.546875 3.753906 9.519531 3.6875 9.570312 3.636719 C 9.605469 3.597656 9.628906 3.605469 9.601562 3.644531 M 27.03125 9.703125 C 27.03125 9.722656 27.007812 9.71875 26.980469 9.695312 C 26.953125 9.671875 26.917969 9.664062 26.90625 9.679688 C 26.890625 9.691406 26.882812 9.675781 26.882812 9.640625 C 26.882812 9.589844 26.890625 9.585938 26.957031 9.625 C 26.996094 9.648438 27.03125 9.6875 27.03125 9.703125 M 32.191406 11.753906 L 32.1875 13.335938 L 32.28125 13.335938 C 32.355469 13.335938 32.375 13.355469 32.375 13.429688 C 32.375 13.503906 32.355469 13.523438 32.28125 13.523438 L 32.1875 13.523438 L 32.1875 16.1875 C 32.1875 18.265625 32.199219 18.859375 32.234375 18.898438 C 32.273438 18.9375 32.273438 18.945312 32.234375 18.921875 C 32.207031 18.90625 32.1875 18.917969 32.1875 18.957031 C 32.1875 18.988281 32.207031 19.007812 32.226562 18.992188 C 32.246094 18.980469 32.261719 18.988281 32.261719 19.007812 C 32.261719 19.027344 32.246094 19.054688 32.222656 19.066406 C 32.199219 19.085938 32.199219 19.109375 32.230469 19.144531 C 32.28125 19.207031 38.980469 19.222656 38.980469 19.160156 C 38.980469 19.140625 38.996094 19.125 39.011719 19.125 C 39.125 19.144531 39.125 19.113281 39.128906 17.488281 C 39.132812 16.59375 39.121094 15.847656 39.105469 15.832031 C 39.066406 15.789062 39.058594 15.691406 39.097656 15.714844 C 39.117188 15.726562 39.128906 15.71875 39.128906 15.699219 C 39.128906 15.648438 37.054688 15.644531 37.046875 15.695312 C 37.042969 15.714844 37.039062 15.75 37.035156 15.769531 C 37.027344 15.789062 37.023438 16.046875 37.019531 16.339844 L 37.015625 16.875 L 34.675781 16.875 L 34.675781 12.304688 L 37.015625 12.304688 L 37.019531 13.21875 C 37.019531 13.71875 37.019531 14.148438 37.019531 14.171875 C 37.011719 14.230469 38.949219 14.242188 39.054688 14.1875 C 39.164062 14.128906 39.171875 10.21875 39.0625 10.257812 C 39.011719 10.277344 39.011719 10.269531 39.070312 10.226562 C 39.128906 10.179688 38.703125 10.171875 35.664062 10.171875 L 32.191406 10.171875 L 32.191406 11.753906 M 43.992188 10.222656 C 44.019531 10.257812 44.023438 10.28125 43.996094 10.296875 C 43.96875 10.3125 43.957031 11.351562 43.960938 13.605469 C 43.960938 15.414062 43.976562 16.851562 43.992188 16.800781 C 44.015625 16.730469 44.023438 16.75 44.023438 16.894531 C 44.023438 17.039062 44.015625 17.058594 43.992188 16.984375 C 43.976562 16.933594 43.960938 17.191406 43.960938 17.601562 C 43.957031 18.054688 43.96875 18.3125 43.992188 18.3125 C 44.015625 18.3125 44.03125 18.351562 44.03125 18.402344 C 44.03125 18.453125 44.015625 18.496094 43.992188 18.496094 C 43.949219 18.496094 43.949219 18.8125 43.988281 18.917969 C 44.015625 18.984375 44.070312 18.988281 45.140625 18.996094 C 45.78125 19 46.242188 18.988281 46.214844 18.972656 C 46.179688 18.949219 46.179688 18.9375 46.210938 18.9375 C 46.242188 18.9375 46.253906 18.578125 46.253906 17.457031 C 46.257812 16.640625 46.257812 15.945312 46.257812 15.910156 C 46.257812 15.851562 46.34375 15.84375 47.34375 15.835938 L 48.429688 15.824219 L 48.425781 16.542969 C 48.425781 17.175781 48.425781 17.207031 48.445312 16.800781 L 48.46875 16.339844 L 48.476562 16.882812 C 48.480469 17.226562 48.472656 17.425781 48.449219 17.425781 C 48.394531 17.425781 48.402344 17.75 48.457031 17.773438 C 48.492188 17.785156 48.492188 17.789062 48.457031 17.792969 C 48.398438 17.796875 48.390625 18.773438 48.449219 18.917969 L 48.484375 19.015625 L 49.59375 19.003906 C 50.207031 19 50.6875 18.980469 50.660156 18.964844 C 50.628906 18.945312 50.632812 18.9375 50.664062 18.9375 C 50.742188 18.9375 50.730469 15.160156 50.652344 15.128906 C 50.621094 15.117188 50.464844 15.105469 50.304688 15.105469 L 50.015625 15.105469 L 50 14.929688 L 49.988281 14.757812 L 50.332031 14.757812 C 50.605469 14.761719 50.671875 14.75 50.660156 14.714844 C 50.648438 14.6875 50.65625 14.664062 50.675781 14.664062 C 50.75 14.664062 50.71875 10.273438 50.644531 10.21875 C 50.546875 10.144531 43.929688 10.148438 43.992188 10.222656 M 51.789062 13.707031 L 51.789062 17.242188 L 51.882812 17.242188 C 51.957031 17.242188 51.972656 17.261719 51.972656 17.335938 C 51.972656 17.410156 51.957031 17.425781 51.882812 17.425781 L 51.789062 17.425781 L 51.789062 18.140625 C 51.789062 18.65625 51.800781 18.863281 51.835938 18.898438 C 51.871094 18.9375 51.871094 18.945312 51.835938 18.921875 C 51.804688 18.90625 51.789062 18.917969 51.789062 18.957031 C 51.789062 18.988281 51.804688 19.007812 51.824219 18.992188 C 51.847656 18.980469 51.863281 18.988281 51.863281 19.007812 C 51.863281 19.027344 51.84375 19.054688 51.824219 19.066406 C 51.796875 19.085938 51.796875 19.109375 51.828125 19.144531 C 51.882812 19.207031 58.433594 19.222656 58.433594 19.160156 C 58.433594 19.140625 58.453125 19.125 58.480469 19.132812 C 58.527344 19.140625 58.574219 15.925781 58.527344 15.746094 C 58.507812 15.664062 58.5 15.664062 57.582031 15.660156 C 56.523438 15.65625 56.617188 15.617188 56.621094 16.050781 C 56.625 16.210938 56.625 16.460938 56.621094 16.609375 L 56.613281 16.875 L 54.089844 16.875 L 54.089844 12.304688 L 54.976562 12.304688 C 55.652344 12.304688 55.871094 12.296875 55.882812 12.261719 C 55.898438 12.222656 55.902344 12.222656 55.90625 12.261719 C 55.90625 12.292969 56.003906 12.304688 56.261719 12.304688 L 56.613281 12.304688 L 56.617188 13.21875 C 56.621094 13.71875 56.621094 14.148438 56.617188 14.171875 C 56.613281 14.203125 56.882812 14.214844 57.660156 14.210938 L 58.710938 14.203125 L 58.722656 12.207031 C 58.730469 10.34375 58.726562 10.210938 58.667969 10.230469 C 58.625 10.246094 58.613281 10.242188 58.632812 10.210938 C 58.652344 10.179688 57.847656 10.167969 55.226562 10.171875 L 51.789062 10.175781 L 51.789062 13.707031 M 59.738281 10.230469 C 59.78125 10.285156 59.78125 10.289062 59.703125 10.246094 L 59.621094 10.203125 L 59.621094 14.675781 C 59.621094 18.675781 59.628906 19.152344 59.679688 19.171875 C 59.71875 19.1875 59.726562 19.179688 59.707031 19.148438 C 59.6875 19.113281 59.691406 19.113281 59.738281 19.148438 C 59.847656 19.238281 66.269531 19.214844 66.347656 19.125 C 66.390625 19.074219 66.394531 19.046875 66.363281 19.035156 C 66.332031 19.023438 66.332031 19.015625 66.367188 19.015625 C 66.402344 19.011719 66.414062 18.761719 66.414062 17.898438 C 66.414062 17.277344 66.398438 16.804688 66.382812 16.832031 C 66.355469 16.871094 66.347656 16.871094 66.328125 16.824219 C 66.316406 16.792969 66.328125 16.761719 66.351562 16.75 C 66.375 16.742188 65.394531 16.734375 64.167969 16.738281 L 61.941406 16.746094 L 61.949219 13.5625 C 61.957031 11.046875 61.949219 10.367188 61.914062 10.324219 C 61.875 10.277344 61.875 10.273438 61.914062 10.292969 C 61.9375 10.308594 61.960938 10.308594 61.960938 10.289062 C 61.960938 10.1875 61.789062 10.171875 60.75 10.171875 C 59.773438 10.171875 59.691406 10.175781 59.738281 10.230469 M 67.5 10.226562 C 67.40625 10.328125 67.433594 19.085938 67.527344 19.113281 C 67.566406 19.121094 67.601562 19.144531 67.601562 19.164062 C 67.601562 19.21875 73.875 19.207031 73.941406 19.148438 C 73.988281 19.113281 73.996094 19.113281 73.972656 19.148438 C 73.957031 19.175781 73.960938 19.195312 73.980469 19.195312 C 74 19.195312 74.027344 19.164062 74.042969 19.121094 C 74.074219 19.019531 74.046875 16.914062 74.015625 16.9375 C 74 16.945312 73.988281 16.933594 73.988281 16.914062 C 73.988281 16.886719 73.339844 16.875 71.890625 16.875 L 69.796875 16.875 L 69.785156 16.351562 L 69.773438 15.824219 L 72.300781 15.824219 L 72.285156 15.949219 C 72.273438 16.035156 72.28125 16.066406 72.3125 16.046875 C 72.335938 16.035156 72.351562 16.039062 72.351562 16.0625 C 72.351562 16.082031 72.335938 16.101562 72.316406 16.101562 C 72.296875 16.101562 72.277344 16.117188 72.277344 16.132812 C 72.277344 16.152344 72.433594 16.164062 72.621094 16.160156 L 72.964844 16.15625 L 72.972656 14.691406 C 72.980469 13.886719 72.972656 13.230469 72.957031 13.234375 C 72.941406 13.234375 72.898438 13.226562 72.867188 13.210938 C 72.832031 13.195312 72.691406 13.191406 72.550781 13.195312 L 72.296875 13.207031 L 72.296875 13.539062 L 69.585938 13.539062 L 69.589844 13.199219 C 69.589844 13.011719 69.601562 12.851562 69.613281 12.839844 C 69.625 12.828125 70.535156 12.820312 71.636719 12.816406 C 72.734375 12.816406 73.699219 12.804688 73.773438 12.785156 C 73.855469 12.769531 73.902344 12.769531 73.890625 12.789062 C 73.878906 12.808594 73.914062 12.820312 73.96875 12.820312 L 74.0625 12.820312 L 74.058594 11.496094 L 74.050781 10.167969 L 70.800781 10.171875 C 68.078125 10.175781 67.539062 10.183594 67.5 10.226562 M 37.015625 10.28125 C 37.015625 10.300781 36.972656 10.316406 36.921875 10.316406 C 36.871094 10.316406 36.828125 10.300781 36.828125 10.28125 C 36.828125 10.257812 36.871094 10.242188 36.921875 10.242188 C 36.972656 10.242188 37.015625 10.257812 37.015625 10.28125 M 52.53125 10.28125 C 52.53125 10.300781 52.480469 10.316406 52.417969 10.316406 C 52.359375 10.316406 52.308594 10.300781 52.308594 10.28125 C 52.308594 10.257812 52.359375 10.242188 52.417969 10.242188 C 52.480469 10.242188 52.53125 10.257812 52.53125 10.28125 M 40.457031 10.394531 C 40.382812 10.4375 40.355469 11.570312 40.429688 11.570312 C 40.449219 11.570312 40.464844 11.613281 40.464844 11.671875 L 40.460938 11.773438 L 40.429688 11.679688 C 40.414062 11.625 40.398438 11.882812 40.394531 12.296875 C 40.394531 12.746094 40.40625 13.007812 40.429688 13.007812 C 40.449219 13.007812 40.464844 13.09375 40.460938 13.199219 C 40.457031 13.363281 40.453125 13.378906 40.429688 13.28125 C 40.414062 13.222656 40.398438 13.804688 40.398438 14.582031 C 40.394531 15.5 40.40625 15.992188 40.429688 15.992188 C 40.453125 15.992188 40.464844 16.105469 40.460938 16.277344 C 40.453125 16.5625 40.453125 16.5625 40.429688 16.359375 C 40.40625 16.179688 40.402344 16.199219 40.398438 16.515625 C 40.394531 16.734375 40.40625 16.875 40.429688 16.875 C 40.449219 16.875 40.464844 16.921875 40.464844 16.976562 L 40.460938 17.078125 L 40.429688 16.984375 C 40.414062 16.933594 40.398438 17.328125 40.398438 17.871094 C 40.398438 18.40625 40.410156 18.878906 40.425781 18.917969 C 40.453125 18.984375 40.503906 18.988281 41.578125 18.996094 C 42.203125 19 42.679688 18.988281 42.652344 18.96875 C 42.613281 18.949219 42.613281 18.9375 42.648438 18.9375 C 42.699219 18.9375 42.71875 10.574219 42.667969 10.523438 C 42.628906 10.484375 42.621094 10.386719 42.660156 10.410156 C 42.679688 10.421875 42.695312 10.414062 42.695312 10.394531 C 42.695312 10.34375 40.546875 10.339844 40.457031 10.394531 M 40.976562 10.417969 C 40.902344 10.425781 40.777344 10.425781 40.699219 10.417969 C 40.621094 10.410156 40.683594 10.402344 40.839844 10.402344 C 40.992188 10.402344 41.054688 10.410156 40.976562 10.417969 M 44.019531 12.039062 C 44.011719 12.09375 44.003906 12.050781 44.003906 11.9375 C 44.003906 11.828125 44.011719 11.78125 44.019531 11.835938 C 44.027344 11.890625 44.027344 11.984375 44.019531 12.039062 M 48.597656 12.472656 L 48.597656 13.191406 L 46.257812 13.191406 L 46.257812 11.753906 L 48.597656 11.753906 L 48.597656 12.472656 M 44.019531 16.054688 C 44.011719 16.132812 44.003906 16.070312 44.003906 15.917969 C 44.003906 15.765625 44.011719 15.703125 44.019531 15.777344 C 44.027344 15.855469 44.027344 15.980469 44.019531 16.054688 M 37.449219 15.722656 C 37.394531 15.730469 37.304688 15.730469 37.246094 15.722656 C 37.191406 15.714844 37.238281 15.707031 37.347656 15.707031 C 37.460938 15.707031 37.507812 15.714844 37.449219 15.722656 M 56.9375 15.722656 C 56.902344 15.730469 56.84375 15.730469 56.808594 15.722656 C 56.773438 15.710938 56.800781 15.703125 56.875 15.703125 C 56.945312 15.703125 56.972656 15.710938 56.9375 15.722656 M 57.828125 15.722656 C 57.792969 15.730469 57.734375 15.730469 57.699219 15.722656 C 57.664062 15.710938 57.691406 15.703125 57.765625 15.703125 C 57.835938 15.703125 57.867188 15.710938 57.828125 15.722656 M 2.46875 18 C 2.480469 18.027344 2.46875 18.058594 2.445312 18.066406 C 2.257812 18.144531 2.574219 18.203125 3.199219 18.203125 C 4.042969 18.203125 3.972656 18.128906 3.984375 19.015625 L 3.996094 19.695312 L 4.183594 19.691406 L 4.367188 19.691406 L 4.378906 18.847656 C 4.386719 18.261719 4.378906 17.996094 4.347656 17.964844 C 4.320312 17.9375 4.316406 17.945312 4.335938 18 C 4.359375 18.070312 4.359375 18.070312 4.285156 18.007812 C 4.183594 17.917969 2.4375 17.914062 2.46875 18 M 40.457031 18.230469 C 40.449219 18.285156 40.441406 18.238281 40.441406 18.128906 C 40.441406 18.015625 40.449219 17.972656 40.457031 18.027344 C 40.464844 18.082031 40.464844 18.171875 40.457031 18.230469 M 48.472656 18.414062 C 48.464844 18.46875 48.457031 18.421875 48.457031 18.3125 C 48.457031 18.199219 48.464844 18.15625 48.472656 18.210938 C 48.484375 18.265625 48.484375 18.359375 48.472656 18.414062 M 5.945312 22.585938 C 5.945312 22.605469 5.917969 22.621094 5.890625 22.621094 C 5.839844 22.621094 5.832031 22.785156 5.835938 23.949219 L 5.835938 25.273438 L 5.917969 25.320312 C 6.039062 25.386719 8.445312 25.410156 8.570312 25.347656 L 8.65625 25.300781 L 8.65625 23.960938 C 8.65625 23.042969 8.644531 22.621094 8.617188 22.621094 C 8.59375 22.621094 8.585938 22.609375 8.597656 22.589844 C 8.609375 22.570312 8.0625 22.554688 7.28125 22.550781 C 6.402344 22.550781 5.945312 22.5625 5.945312 22.585938 M 22.585938 22.605469 C 22.585938 22.632812 22.605469 22.644531 22.628906 22.632812 C 22.648438 22.621094 22.648438 22.632812 22.621094 22.667969 C 22.585938 22.710938 22.574219 23.082031 22.574219 24.320312 C 22.578125 25.339844 22.589844 25.898438 22.613281 25.863281 C 22.636719 25.828125 22.648438 25.824219 22.648438 25.855469 C 22.648438 25.882812 22.667969 25.902344 22.6875 25.902344 C 22.710938 25.902344 22.714844 25.882812 22.703125 25.855469 C 22.679688 25.820312 22.683594 25.820312 22.726562 25.855469 C 22.777344 25.90625 25.785156 25.925781 26.019531 25.878906 L 26.136719 25.855469 L 26.136719 24.253906 C 26.136719 22.914062 26.128906 22.644531 26.085938 22.601562 C 26.007812 22.523438 22.585938 22.527344 22.585938 22.605469 M 22.636719 23.71875 C 22.628906 23.773438 22.625 23.730469 22.625 23.617188 C 22.625 23.507812 22.628906 23.460938 22.636719 23.515625 C 22.648438 23.570312 22.648438 23.664062 22.636719 23.71875 M 22.636719 24.789062 C 22.628906 24.84375 22.625 24.796875 22.625 24.6875 C 22.625 24.574219 22.628906 24.527344 22.636719 24.585938 C 22.648438 24.640625 22.648438 24.730469 22.636719 24.789062 M 17.085938 25.949219 C 17.0625 25.980469 17.046875 26.363281 17.046875 27.015625 L 17.042969 28.039062 L 17.136719 28.039062 C 17.210938 28.039062 17.230469 28.058594 17.230469 28.132812 C 17.230469 28.203125 17.210938 28.222656 17.136719 28.222656 L 17.042969 28.222656 L 17.042969 29.179688 L 20.421875 29.179688 L 20.414062 27.554688 C 20.40625 26.269531 20.394531 25.925781 20.355469 25.917969 C 20.332031 25.910156 20.324219 25.914062 20.347656 25.925781 C 20.367188 25.9375 20.386719 25.960938 20.386719 25.984375 C 20.386719 26.007812 20.355469 25.996094 20.316406 25.964844 C 20.226562 25.882812 17.15625 25.871094 17.085938 25.949219 M 11.375 26.144531 C 11.3125 26.210938 11.304688 28.996094 11.367188 28.996094 C 11.386719 28.996094 11.394531 29.015625 11.378906 29.039062 C 11.363281 29.066406 11.371094 29.070312 11.394531 29.058594 C 11.414062 29.042969 11.445312 29.050781 11.457031 29.070312 C 11.492188 29.128906 14.371094 29.121094 14.371094 29.0625 C 14.371094 29.03125 14.382812 29.035156 14.410156 29.070312 C 14.4375 29.113281 14.445312 29.113281 14.445312 29.074219 C 14.445312 29.046875 14.46875 29.035156 14.5 29.046875 C 14.582031 29.078125 14.585938 26.21875 14.503906 26.136719 C 14.425781 26.0625 11.445312 26.066406 11.375 26.144531 "/>
</g>
<g clip-path="url(#clip2)" clip-rule="nonzero">
<path style=" stroke:none;fill-rule:evenodd;fill:rgb(39.219666%,32.939148%,64.309692%);fill-opacity:1;" d="M 75.136719 14.683594 L 75.136719 19.195312 L 81.707031 19.195312 L 81.707031 16.875 L 77.4375 16.875 L 77.4375 15.84375 L 80.109375 15.84375 L 80.109375 16.175781 L 80.667969 16.175781 L 80.667969 13.191406 L 80.109375 13.191406 L 80.109375 13.523438 L 77.4375 13.523438 L 77.4375 12.820312 L 81.707031 12.820312 L 81.707031 10.167969 L 75.136719 10.167969 L 75.136719 14.683594 M 84.046875 12.03125 L 84.046875 13.890625 L 84.140625 13.890625 C 84.222656 13.890625 84.230469 13.902344 84.230469 14.054688 C 84.230469 14.199219 84.242188 14.222656 84.304688 14.222656 C 84.359375 14.222656 84.378906 14.246094 84.378906 14.3125 C 84.378906 14.398438 84.390625 14.40625 84.566406 14.40625 L 84.75 14.40625 L 84.75 14.589844 C 84.75 14.761719 84.746094 14.773438 84.660156 14.773438 C 84.585938 14.773438 84.566406 14.792969 84.566406 14.867188 C 84.566406 14.941406 84.546875 14.960938 84.472656 14.960938 C 84.40625 14.960938 84.378906 14.980469 84.378906 15.03125 C 84.378906 15.082031 84.355469 15.105469 84.304688 15.105469 C 84.242188 15.105469 84.230469 15.132812 84.230469 15.289062 C 84.230469 15.460938 84.226562 15.476562 84.140625 15.476562 L 84.046875 15.476562 L 84.046875 19.011719 L 86.347656 19.011719 L 86.347656 15.84375 L 88.316406 15.84375 L 88.316406 19.011719 L 90.542969 19.011719 L 90.542969 17.242188 C 90.542969 16.15625 90.527344 15.476562 90.507812 15.476562 C 90.488281 15.476562 90.464844 15.394531 90.460938 15.300781 C 90.449219 15.152344 90.4375 15.125 90.367188 15.113281 C 90.3125 15.105469 90.28125 15.074219 90.28125 15.03125 C 90.28125 14.980469 90.257812 14.960938 90.1875 14.960938 C 90.113281 14.960938 90.097656 14.941406 90.097656 14.867188 C 90.097656 14.792969 90.078125 14.773438 90.003906 14.773438 C 89.917969 14.773438 89.910156 14.761719 89.910156 14.589844 L 89.910156 14.40625 L 90.097656 14.40625 C 90.269531 14.40625 90.28125 14.398438 90.28125 14.3125 C 90.28125 14.242188 90.300781 14.222656 90.375 14.222656 C 90.460938 14.222656 90.46875 14.207031 90.46875 14.054688 C 90.46875 13.964844 90.484375 13.890625 90.503906 13.890625 C 90.527344 13.890625 90.542969 13.246094 90.542969 12.03125 L 90.542969 10.167969 L 88.316406 10.167969 L 88.316406 13.523438 L 86.347656 13.523438 L 86.347656 10.167969 L 84.046875 10.167969 L 84.046875 12.03125 M 25.0625 18.660156 L 25.0625 21.148438 L 30.035156 21.148438 L 30.035156 16.175781 L 25.0625 16.175781 L 25.0625 18.660156 M 1.898438 19.007812 L 1.898438 19.894531 L 4.050781 19.894531 L 4.050781 19.804688 C 4.050781 19.757812 4.035156 19.707031 4.015625 19.695312 C 3.992188 19.679688 3.976562 19.40625 3.976562 18.996094 C 3.976562 18.140625 4.046875 18.210938 3.179688 18.1875 C 2.8125 18.175781 2.375 18.15625 2.207031 18.144531 L 1.898438 18.121094 L 1.898438 19.007812 "/>
</g>
<g clip-path="url(#clip3)" clip-rule="nonzero">
<path style=" stroke:none;fill-rule:evenodd;fill:rgb(83.139038%,83.139038%,83.139038%);fill-opacity:1;" d="M 18.542969 0.167969 C 18.542969 0.199219 18.5625 0.222656 18.589844 0.222656 C 18.617188 0.222656 18.640625 0.207031 18.640625 0.1875 C 18.640625 0.171875 18.617188 0.148438 18.589844 0.136719 C 18.5625 0.125 18.542969 0.140625 18.542969 0.167969 M 10.449219 0.910156 C 10.445312 1.007812 10.445312 1.007812 10.503906 0.898438 C 10.535156 0.84375 10.53125 0.824219 10.5 0.824219 C 10.476562 0.824219 10.453125 0.863281 10.449219 0.910156 M 20.914062 0.839844 C 20.890625 0.855469 20.882812 0.886719 20.902344 0.914062 C 20.925781 0.953125 20.9375 0.949219 20.957031 0.902344 C 20.984375 0.824219 20.972656 0.804688 20.914062 0.839844 M 9.761719 1.167969 C 9.800781 1.183594 9.800781 1.195312 9.761719 1.242188 C 9.71875 1.296875 9.722656 1.296875 9.796875 1.257812 C 9.84375 1.234375 9.878906 1.199219 9.878906 1.1875 C 9.878906 1.171875 9.84375 1.15625 9.796875 1.152344 C 9.75 1.152344 9.734375 1.15625 9.761719 1.167969 M 9.042969 1.550781 C 9 1.621094 9.0625 1.636719 9.128906 1.574219 C 9.1875 1.515625 9.1875 1.511719 9.128906 1.511719 C 9.09375 1.511719 9.058594 1.527344 9.042969 1.550781 M 22.277344 1.546875 C 22.351562 1.59375 22.390625 1.59375 22.390625 1.546875 C 22.390625 1.527344 22.351562 1.511719 22.304688 1.511719 C 22.238281 1.511719 22.234375 1.519531 22.277344 1.546875 M 8.65625 1.734375 C 8.65625 1.75 8.691406 1.757812 8.734375 1.75 C 8.851562 1.726562 8.859375 1.703125 8.75 1.703125 C 8.699219 1.703125 8.65625 1.71875 8.65625 1.734375 M 14.507812 2.085938 C 14.46875 2.125 14.476562 2.210938 14.515625 2.210938 C 14.535156 2.210938 14.550781 2.175781 14.546875 2.136719 C 14.539062 2.054688 14.542969 2.054688 14.507812 2.085938 M 17.054688 2.144531 C 17.0625 2.171875 17.101562 2.199219 17.140625 2.207031 C 17.199219 2.21875 17.203125 2.210938 17.160156 2.160156 C 17.101562 2.089844 17.03125 2.082031 17.054688 2.144531 M 17.441406 2.203125 C 17.570312 2.207031 17.78125 2.207031 17.90625 2.203125 C 18.035156 2.195312 17.929688 2.1875 17.675781 2.1875 C 17.421875 2.1875 17.316406 2.195312 17.441406 2.203125 M 13.386719 2.246094 C 13.328125 2.273438 13.324219 2.28125 13.375 2.28125 C 13.410156 2.285156 13.445312 2.3125 13.453125 2.347656 C 13.464844 2.386719 13.472656 2.375 13.476562 2.3125 C 13.480469 2.257812 13.476562 2.210938 13.472656 2.214844 C 13.464844 2.214844 13.429688 2.230469 13.386719 2.246094 M 18.121094 2.339844 C 18.121094 2.363281 18.160156 2.386719 18.210938 2.386719 C 18.316406 2.386719 18.308594 2.339844 18.195312 2.3125 C 18.148438 2.296875 18.121094 2.308594 18.121094 2.339844 M 12.714844 2.460938 C 12.730469 2.484375 12.726562 2.503906 12.703125 2.503906 C 12.683594 2.503906 12.664062 2.523438 12.664062 2.542969 C 12.664062 2.5625 12.6875 2.578125 12.714844 2.578125 C 12.773438 2.578125 12.773438 2.492188 12.722656 2.441406 C 12.703125 2.425781 12.703125 2.433594 12.714844 2.460938 M 19.34375 2.6875 C 19.34375 2.703125 19.386719 2.71875 19.441406 2.71875 C 19.546875 2.71875 19.539062 2.695312 19.425781 2.671875 C 19.382812 2.664062 19.34375 2.671875 19.34375 2.6875 M 24.28125 2.777344 C 24.3125 2.816406 24.3125 2.835938 24.273438 2.847656 C 24.246094 2.859375 24.25 2.867188 24.292969 2.871094 C 24.363281 2.875 24.367188 2.867188 24.335938 2.785156 C 24.320312 2.753906 24.292969 2.726562 24.273438 2.726562 C 24.25 2.726562 24.253906 2.746094 24.28125 2.777344 M 11.082031 3.023438 C 11.082031 3.0625 11.105469 3.09375 11.132812 3.09375 C 11.15625 3.09375 11.179688 3.082031 11.179688 3.0625 C 11.179688 3.042969 11.15625 3.011719 11.132812 2.992188 C 11.09375 2.960938 11.082031 2.96875 11.082031 3.023438 M 20.792969 3.222656 C 20.792969 3.25 20.835938 3.269531 20.886719 3.269531 C 20.992188 3.269531 20.980469 3.222656 20.867188 3.195312 C 20.820312 3.183594 20.792969 3.195312 20.792969 3.222656 M 24.949219 3.316406 C 25.023438 3.363281 25.0625 3.363281 25.0625 3.316406 C 25.0625 3.296875 25.023438 3.28125 24.980469 3.28125 C 24.910156 3.28125 24.90625 3.285156 24.949219 3.316406 M 21.136719 3.398438 C 21.144531 3.425781 21.183594 3.449219 21.222656 3.457031 C 21.28125 3.46875 21.285156 3.464844 21.242188 3.414062 C 21.183594 3.34375 21.113281 3.332031 21.136719 3.398438 M 10.070312 3.472656 C 10.066406 3.503906 10.035156 3.550781 10 3.570312 C 9.964844 3.589844 9.953125 3.609375 9.972656 3.609375 C 10.050781 3.609375 10.109375 3.542969 10.09375 3.476562 C 10.078125 3.417969 10.074219 3.417969 10.070312 3.472656 M 25.164062 3.539062 C 25.199219 3.578125 25.230469 3.609375 25.234375 3.609375 C 25.238281 3.609375 25.230469 3.578125 25.222656 3.539062 C 25.210938 3.496094 25.179688 3.464844 25.152344 3.464844 C 25.113281 3.464844 25.113281 3.480469 25.164062 3.539062 M 9.558594 3.664062 C 9.53125 3.738281 9.574219 3.796875 9.660156 3.796875 C 9.734375 3.796875 9.761719 3.671875 9.699219 3.632812 C 9.679688 3.621094 9.667969 3.636719 9.671875 3.671875 C 9.671875 3.703125 9.652344 3.738281 9.621094 3.746094 C 9.570312 3.761719 9.570312 3.757812 9.621094 3.726562 C 9.660156 3.695312 9.664062 3.683594 9.628906 3.683594 C 9.601562 3.683594 9.589844 3.667969 9.601562 3.648438 C 9.613281 3.628906 9.613281 3.609375 9.601562 3.609375 C 9.589844 3.609375 9.570312 3.636719 9.558594 3.664062 M 25.320312 3.648438 C 25.320312 3.671875 25.335938 3.679688 25.355469 3.667969 C 25.375 3.65625 25.398438 3.671875 25.40625 3.703125 C 25.421875 3.746094 25.425781 3.746094 25.421875 3.699219 C 25.414062 3.628906 25.320312 3.582031 25.320312 3.648438 M 22.019531 3.933594 C 22.019531 3.949219 22.0625 3.964844 22.121094 3.96875 C 22.207031 3.972656 22.210938 3.96875 22.148438 3.941406 C 22.050781 3.902344 22.019531 3.898438 22.019531 3.933594 M 9.121094 4.085938 C 9.109375 4.105469 9.117188 4.132812 9.140625 4.144531 C 9.195312 4.179688 9.234375 4.132812 9.1875 4.085938 C 9.160156 4.058594 9.136719 4.058594 9.121094 4.085938 M 25.734375 4.121094 C 25.730469 4.148438 25.761719 4.179688 25.804688 4.191406 C 25.84375 4.199219 25.878906 4.226562 25.878906 4.242188 C 25.878906 4.261719 25.894531 4.269531 25.914062 4.253906 C 25.984375 4.214844 25.953125 4.164062 25.863281 4.164062 C 25.8125 4.164062 25.765625 4.144531 25.753906 4.117188 C 25.742188 4.082031 25.734375 4.082031 25.734375 4.121094 M 5.480469 4.203125 C 5.4375 4.273438 5.5 4.289062 5.5625 4.226562 C 5.621094 4.167969 5.621094 4.164062 5.566406 4.164062 C 5.53125 4.164062 5.492188 4.179688 5.480469 4.203125 M 26.210938 4.53125 C 26.210938 4.554688 26.226562 4.5625 26.246094 4.550781 C 26.265625 4.539062 26.289062 4.554688 26.300781 4.585938 C 26.3125 4.632812 26.316406 4.628906 26.3125 4.582031 C 26.304688 4.511719 26.210938 4.464844 26.210938 4.53125 M 8.246094 4.789062 C 8.214844 4.847656 8.21875 4.863281 8.261719 4.863281 C 8.292969 4.863281 8.3125 4.832031 8.3125 4.789062 C 8.308594 4.75 8.300781 4.714844 8.296875 4.714844 C 8.289062 4.714844 8.269531 4.75 8.246094 4.789062 M 23.570312 4.894531 C 23.628906 4.933594 23.566406 4.992188 23.503906 4.957031 C 23.484375 4.941406 23.464844 4.957031 23.464844 4.984375 C 23.464844 5.015625 23.5 5.039062 23.550781 5.039062 C 23.648438 5.039062 23.667969 4.898438 23.574219 4.871094 C 23.53125 4.859375 23.53125 4.863281 23.570312 4.894531 M 26.554688 4.90625 C 26.578125 4.972656 26.644531 4.984375 26.644531 4.917969 C 26.644531 4.890625 26.621094 4.863281 26.59375 4.863281 C 26.5625 4.863281 26.546875 4.882812 26.554688 4.90625 M 23.652344 5.175781 C 23.652344 5.210938 23.667969 5.230469 23.691406 5.226562 C 23.714844 5.21875 23.730469 5.195312 23.730469 5.175781 C 23.730469 5.15625 23.714844 5.136719 23.691406 5.128906 C 23.667969 5.121094 23.652344 5.144531 23.652344 5.175781 M 23.800781 5.339844 C 23.800781 5.355469 23.84375 5.371094 23.894531 5.371094 C 24.003906 5.371094 23.996094 5.347656 23.878906 5.324219 C 23.835938 5.316406 23.800781 5.324219 23.800781 5.339844 M 26.953125 5.429688 C 26.984375 5.472656 26.984375 5.488281 26.949219 5.5 C 26.917969 5.515625 26.921875 5.523438 26.964844 5.523438 C 27.035156 5.527344 27.039062 5.519531 27.007812 5.4375 C 26.996094 5.40625 26.96875 5.378906 26.945312 5.378906 C 26.921875 5.378906 26.925781 5.398438 26.953125 5.429688 M 23.996094 5.488281 C 23.992188 5.535156 24.007812 5.554688 24.042969 5.539062 C 24.085938 5.523438 24.089844 5.507812 24.054688 5.46875 C 24.003906 5.402344 24.003906 5.402344 23.996094 5.488281 M 24.355469 5.875 C 24.355469 5.902344 24.398438 5.921875 24.449219 5.921875 C 24.554688 5.921875 24.542969 5.875 24.429688 5.847656 C 24.386719 5.835938 24.355469 5.847656 24.355469 5.875 M 24.542969 6.0625 C 24.542969 6.09375 24.558594 6.117188 24.582031 6.109375 C 24.605469 6.101562 24.621094 6.082031 24.621094 6.0625 C 24.621094 6.042969 24.605469 6.019531 24.582031 6.011719 C 24.558594 6.003906 24.542969 6.027344 24.542969 6.0625 M 24.691406 6.222656 C 24.691406 6.242188 24.734375 6.253906 24.785156 6.253906 C 24.894531 6.253906 24.886719 6.230469 24.769531 6.210938 C 24.726562 6.199219 24.691406 6.207031 24.691406 6.222656 M 24.886719 6.371094 C 24.882812 6.421875 24.898438 6.4375 24.933594 6.421875 C 24.976562 6.40625 24.980469 6.390625 24.945312 6.351562 C 24.894531 6.285156 24.894531 6.285156 24.886719 6.371094 M 6.488281 6.507812 C 6.453125 6.546875 6.460938 6.632812 6.5 6.632812 C 6.519531 6.632812 6.53125 6.597656 6.527344 6.558594 C 6.523438 6.476562 6.523438 6.476562 6.488281 6.507812 M 27.820312 6.65625 C 27.835938 6.667969 27.824219 6.707031 27.800781 6.738281 C 27.757812 6.789062 27.761719 6.792969 27.8125 6.753906 C 27.84375 6.726562 27.882812 6.71875 27.894531 6.730469 C 27.910156 6.742188 27.921875 6.726562 27.921875 6.695312 C 27.921875 6.660156 27.890625 6.632812 27.859375 6.632812 C 27.824219 6.632812 27.808594 6.644531 27.820312 6.65625 M 3.503906 6.878906 C 3.511719 6.949219 3.515625 6.953125 3.59375 6.898438 C 3.695312 6.835938 3.699219 6.828125 3.625 6.828125 C 3.59375 6.828125 3.570312 6.847656 3.570312 6.867188 C 3.570312 6.890625 3.550781 6.882812 3.535156 6.855469 C 3.503906 6.808594 3.5 6.816406 3.503906 6.878906 M 27.890625 6.925781 C 27.890625 6.996094 27.898438 7.027344 27.910156 6.992188 C 27.917969 6.957031 27.917969 6.898438 27.910156 6.863281 C 27.898438 6.828125 27.890625 6.855469 27.890625 6.925781 M 3.308594 7.039062 C 3.308594 7.054688 3.34375 7.0625 3.390625 7.054688 C 3.503906 7.03125 3.511719 7.007812 3.402344 7.007812 C 3.351562 7.007812 3.308594 7.023438 3.308594 7.039062 M 28.046875 7.023438 C 28.023438 7.03125 28.011719 7.074219 28.019531 7.113281 C 28.046875 7.214844 28.085938 7.203125 28.09375 7.09375 C 28.097656 7.042969 28.097656 7 28.09375 7.003906 C 28.089844 7.003906 28.066406 7.015625 28.046875 7.023438 M 5.589844 7.765625 C 5.601562 7.789062 5.597656 7.8125 5.578125 7.8125 C 5.554688 7.8125 5.535156 7.828125 5.535156 7.847656 C 5.535156 7.867188 5.558594 7.886719 5.589844 7.886719 C 5.644531 7.886719 5.648438 7.796875 5.59375 7.746094 C 5.578125 7.730469 5.574219 7.738281 5.589844 7.765625 M 5.433594 7.871094 C 5.40625 7.898438 5.398438 7.941406 5.410156 7.964844 C 5.429688 7.992188 5.449219 7.976562 5.46875 7.921875 C 5.507812 7.816406 5.496094 7.800781 5.433594 7.871094 M 25.960938 7.953125 C 25.964844 7.988281 25.988281 8.019531 26.015625 8.019531 C 26.046875 8.019531 26.050781 8 26.023438 7.953125 C 26.003906 7.914062 25.980469 7.886719 25.972656 7.886719 C 25.964844 7.886719 25.960938 7.914062 25.960938 7.953125 M 2.789062 8.125 C 2.789062 8.246094 2.84375 8.246094 2.851562 8.125 C 2.855469 8.074219 2.839844 8.03125 2.824219 8.03125 C 2.804688 8.03125 2.789062 8.074219 2.789062 8.125 M 2.417969 8.808594 C 2.417969 8.824219 2.453125 8.832031 2.496094 8.824219 C 2.613281 8.800781 2.621094 8.777344 2.511719 8.777344 C 2.460938 8.777344 2.417969 8.792969 2.417969 8.808594 M 26.472656 8.878906 C 26.472656 8.894531 26.515625 8.90625 26.566406 8.90625 C 26.675781 8.90625 26.667969 8.882812 26.550781 8.863281 C 26.507812 8.855469 26.472656 8.859375 26.472656 8.878906 M 26.675781 9.210938 C 26.675781 9.25 26.695312 9.285156 26.71875 9.285156 C 26.742188 9.285156 26.769531 9.25 26.78125 9.210938 C 26.792969 9.160156 26.78125 9.136719 26.738281 9.136719 C 26.699219 9.136719 26.675781 9.167969 26.675781 9.210938 M 4.667969 9.390625 C 4.65625 9.410156 4.664062 9.4375 4.683594 9.453125 C 4.742188 9.488281 4.777344 9.4375 4.730469 9.390625 C 4.703125 9.363281 4.683594 9.363281 4.667969 9.390625 M 4.523438 9.570312 C 4.515625 9.644531 4.523438 9.722656 4.539062 9.742188 C 4.558594 9.765625 4.570312 9.707031 4.570312 9.605469 C 4.570312 9.398438 4.550781 9.378906 4.523438 9.570312 M 26.882812 9.613281 C 26.882812 9.632812 26.871094 9.679688 26.859375 9.714844 C 26.839844 9.78125 26.839844 9.78125 26.882812 9.714844 C 26.914062 9.664062 26.933594 9.660156 26.976562 9.691406 C 27.003906 9.714844 27.03125 9.722656 27.03125 9.703125 C 27.03125 9.6875 26.996094 9.648438 26.957031 9.625 C 26.914062 9.601562 26.882812 9.59375 26.882812 9.613281 M 29.421875 10.074219 C 29.394531 10.136719 29.429688 10.207031 29.480469 10.207031 C 29.527344 10.207031 29.527344 10.070312 29.480469 10.039062 C 29.457031 10.027344 29.433594 10.042969 29.421875 10.074219 M 52.355469 10.195312 C 52.390625 10.203125 52.449219 10.203125 52.484375 10.195312 C 52.519531 10.183594 52.492188 10.179688 52.417969 10.179688 C 52.347656 10.179688 52.320312 10.183594 52.355469 10.195312 M 36.828125 10.28125 C 36.828125 10.300781 36.871094 10.316406 36.921875 10.316406 C 36.972656 10.316406 37.015625 10.300781 37.015625 10.28125 C 37.015625 10.257812 36.972656 10.242188 36.921875 10.242188 C 36.871094 10.242188 36.828125 10.257812 36.828125 10.28125 M 52.308594 10.28125 C 52.308594 10.300781 52.359375 10.316406 52.417969 10.316406 C 52.480469 10.316406 52.53125 10.300781 52.53125 10.28125 C 52.53125 10.257812 52.480469 10.242188 52.417969 10.242188 C 52.359375 10.242188 52.308594 10.257812 52.308594 10.28125 M 1.914062 10.398438 C 1.875 10.460938 1.9375 10.476562 1.996094 10.421875 C 2.046875 10.371094 2.046875 10.367188 1.992188 10.367188 C 1.960938 10.367188 1.921875 10.378906 1.914062 10.398438 M 40.699219 10.417969 C 40.777344 10.425781 40.902344 10.425781 40.976562 10.417969 C 41.054688 10.410156 40.992188 10.402344 40.839844 10.402344 C 40.683594 10.402344 40.621094 10.410156 40.699219 10.417969 M 29.621094 10.734375 C 29.644531 10.761719 29.652344 10.792969 29.640625 10.808594 C 29.625 10.820312 29.636719 10.832031 29.660156 10.832031 C 29.707031 10.832031 29.710938 10.824219 29.679688 10.742188 C 29.667969 10.710938 29.640625 10.683594 29.621094 10.683594 C 29.59375 10.683594 29.597656 10.703125 29.621094 10.734375 M 1.726562 10.925781 C 1.714844 10.957031 1.714844 10.992188 1.726562 11.007812 C 1.742188 11.019531 1.75 11.003906 1.75 10.96875 C 1.75 10.9375 1.78125 10.902344 1.816406 10.894531 C 1.875 10.878906 1.875 10.878906 1.816406 10.875 C 1.777344 10.871094 1.738281 10.894531 1.726562 10.925781 M 27.363281 11.164062 C 27.363281 11.1875 27.449219 11.238281 27.496094 11.238281 C 27.546875 11.238281 27.5 11.167969 27.4375 11.152344 C 27.398438 11.144531 27.363281 11.148438 27.363281 11.164062 M 3.976562 11.417969 C 3.976562 11.4375 3.945312 11.449219 3.902344 11.441406 C 3.859375 11.433594 3.835938 11.441406 3.847656 11.460938 C 3.886719 11.519531 4.050781 11.5 4.050781 11.441406 C 4.050781 11.410156 4.035156 11.386719 4.015625 11.386719 C 3.996094 11.386719 3.976562 11.402344 3.976562 11.417969 M 40.421875 11.660156 C 40.429688 11.710938 40.445312 11.753906 40.453125 11.753906 C 40.460938 11.753906 40.46875 11.710938 40.46875 11.660156 C 40.46875 11.609375 40.453125 11.570312 40.433594 11.570312 C 40.417969 11.570312 40.410156 11.609375 40.421875 11.660156 M 44.003906 11.9375 C 44.003906 12.050781 44.011719 12.09375 44.019531 12.039062 C 44.027344 11.984375 44.027344 11.890625 44.019531 11.835938 C 44.011719 11.78125 44.003906 11.828125 44.003906 11.9375 M 27.566406 11.867188 C 27.566406 11.941406 27.605469 11.960938 27.640625 11.90625 C 27.652344 11.886719 27.636719 11.855469 27.613281 11.832031 C 27.578125 11.804688 27.566406 11.8125 27.566406 11.867188 M 3.808594 12.1875 C 3.820312 12.210938 3.816406 12.234375 3.792969 12.234375 C 3.773438 12.234375 3.753906 12.25 3.753906 12.269531 C 3.753906 12.289062 3.777344 12.304688 3.808594 12.304688 C 3.863281 12.304688 3.867188 12.21875 3.8125 12.167969 C 3.792969 12.152344 3.792969 12.160156 3.808594 12.1875 M 29.8125 12.398438 C 29.8125 12.449219 29.828125 12.492188 29.851562 12.492188 C 29.871094 12.492188 29.886719 12.449219 29.886719 12.398438 C 29.886719 12.347656 29.871094 12.304688 29.851562 12.304688 C 29.828125 12.304688 29.8125 12.347656 29.8125 12.398438 M 27.734375 12.542969 C 27.734375 12.632812 27.792969 12.675781 27.875 12.648438 C 27.964844 12.613281 27.929688 12.453125 27.828125 12.453125 C 27.753906 12.453125 27.734375 12.472656 27.734375 12.542969 M 3.644531 12.894531 C 3.644531 13.03125 3.632812 13.171875 3.621094 13.207031 C 3.609375 13.238281 3.613281 13.265625 3.632812 13.265625 C 3.65625 13.265625 3.675781 13.125 3.679688 12.949219 C 3.679688 12.777344 3.675781 12.636719 3.664062 12.636719 C 3.652344 12.636719 3.644531 12.753906 3.644531 12.894531 M 27.761719 12.71875 C 27.796875 12.75 27.796875 12.773438 27.765625 12.8125 C 27.742188 12.839844 27.734375 12.867188 27.742188 12.878906 C 27.753906 12.890625 27.789062 12.855469 27.828125 12.800781 C 27.863281 12.746094 27.871094 12.714844 27.851562 12.726562 C 27.828125 12.742188 27.808594 12.734375 27.808594 12.714844 C 27.808594 12.691406 27.789062 12.675781 27.765625 12.675781 C 27.730469 12.675781 27.730469 12.683594 27.761719 12.71875 M 73.78125 12.785156 L 73.671875 12.8125 L 73.769531 12.816406 C 73.824219 12.820312 73.878906 12.804688 73.894531 12.785156 C 73.90625 12.765625 73.910156 12.75 73.90625 12.753906 C 73.898438 12.753906 73.84375 12.769531 73.78125 12.785156 M 40.398438 13.089844 C 40.410156 13.3125 40.457031 13.394531 40.460938 13.199219 C 40.464844 13.09375 40.449219 13.007812 40.429688 13.007812 C 40.410156 13.007812 40.394531 13.042969 40.398438 13.089844 M 32.1875 13.429688 C 32.1875 13.503906 32.207031 13.523438 32.28125 13.523438 C 32.355469 13.523438 32.375 13.503906 32.375 13.429688 C 32.375 13.355469 32.355469 13.335938 32.28125 13.335938 C 32.207031 13.335938 32.1875 13.355469 32.1875 13.429688 M 27.921875 14.71875 C 27.921875 14.746094 27.960938 14.765625 28.011719 14.765625 C 28.117188 14.765625 28.105469 14.71875 27.996094 14.691406 C 27.949219 14.679688 27.921875 14.6875 27.921875 14.71875 M 44.003906 15.917969 C 44.003906 16.070312 44.011719 16.132812 44.019531 16.054688 C 44.027344 15.980469 44.027344 15.855469 44.019531 15.777344 C 44.011719 15.703125 44.003906 15.765625 44.003906 15.917969 M 37.246094 15.722656 C 37.304688 15.730469 37.394531 15.730469 37.449219 15.722656 C 37.507812 15.714844 37.460938 15.707031 37.347656 15.707031 C 37.238281 15.707031 37.191406 15.714844 37.246094 15.722656 M 56.808594 15.722656 C 56.84375 15.730469 56.902344 15.730469 56.9375 15.722656 C 56.972656 15.710938 56.945312 15.703125 56.875 15.703125 C 56.800781 15.703125 56.773438 15.710938 56.808594 15.722656 M 57.699219 15.722656 C 57.734375 15.730469 57.792969 15.730469 57.828125 15.722656 C 57.867188 15.710938 57.835938 15.703125 57.765625 15.703125 C 57.691406 15.703125 57.664062 15.710938 57.699219 15.722656 M 40.417969 16.257812 C 40.449219 16.613281 40.46875 16.617188 40.46875 16.273438 C 40.46875 16.109375 40.453125 15.992188 40.429688 15.992188 C 40.40625 15.992188 40.402344 16.085938 40.417969 16.257812 M 72.902344 16.101562 C 72.84375 16.164062 72.84375 16.167969 72.90625 16.164062 C 72.941406 16.164062 72.972656 16.128906 72.972656 16.09375 C 72.980469 16.015625 72.980469 16.015625 72.902344 16.101562 M 48.445312 16.875 C 48.433594 17.167969 48.429688 17.417969 48.4375 17.425781 C 48.476562 17.476562 48.484375 17.339844 48.476562 16.871094 L 48.464844 16.339844 L 48.445312 16.875 M 43.988281 16.8125 C 43.976562 16.855469 43.980469 16.933594 43.996094 16.984375 C 44.015625 17.054688 44.023438 17.035156 44.027344 16.902344 C 44.03125 16.714844 44.011719 16.675781 43.988281 16.8125 M 66.351562 16.757812 C 66.324219 16.773438 66.320312 16.804688 66.335938 16.832031 C 66.359375 16.871094 66.371094 16.867188 66.390625 16.816406 C 66.421875 16.742188 66.40625 16.722656 66.351562 16.757812 M 40.421875 16.96875 C 40.429688 17.019531 40.445312 17.058594 40.453125 17.058594 C 40.460938 17.058594 40.46875 17.019531 40.46875 16.96875 C 40.46875 16.917969 40.453125 16.875 40.433594 16.875 C 40.417969 16.875 40.410156 16.917969 40.421875 16.96875 M 73.988281 16.902344 C 74 17 74.054688 17.070312 74.050781 16.976562 C 74.046875 16.921875 74.03125 16.875 74.015625 16.875 C 74 16.875 73.988281 16.886719 73.988281 16.902344 M 51.789062 17.335938 C 51.789062 17.410156 51.808594 17.425781 51.882812 17.425781 C 51.957031 17.425781 51.972656 17.410156 51.972656 17.335938 C 51.972656 17.261719 51.957031 17.242188 51.882812 17.242188 C 51.808594 17.242188 51.789062 17.261719 51.789062 17.335938 M 74.035156 17.519531 C 74.035156 17.683594 74.042969 17.742188 74.050781 17.65625 C 74.058594 17.570312 74.058594 17.4375 74.050781 17.363281 C 74.042969 17.285156 74.035156 17.359375 74.035156 17.519531 M 4.238281 17.960938 C 4.238281 18.007812 4.34375 18.050781 4.359375 18.007812 C 4.371094 17.976562 4.347656 17.957031 4.308594 17.953125 C 4.269531 17.949219 4.238281 17.953125 4.238281 17.960938 M 40.441406 18.128906 C 40.441406 18.238281 40.449219 18.285156 40.457031 18.230469 C 40.464844 18.171875 40.464844 18.082031 40.457031 18.027344 C 40.449219 17.972656 40.441406 18.015625 40.441406 18.128906 M 48.457031 18.3125 C 48.457031 18.421875 48.464844 18.46875 48.472656 18.414062 C 48.484375 18.359375 48.484375 18.265625 48.472656 18.210938 C 48.464844 18.15625 48.457031 18.199219 48.457031 18.3125 M 43.957031 18.402344 C 43.957031 18.453125 43.972656 18.496094 43.992188 18.496094 C 44.015625 18.496094 44.03125 18.453125 44.03125 18.402344 C 44.03125 18.351562 44.015625 18.3125 43.992188 18.3125 C 43.972656 18.3125 43.957031 18.351562 43.957031 18.402344 M 50.414062 18.976562 L 50.171875 19 L 50.398438 19.003906 C 50.519531 19.007812 50.644531 18.996094 50.675781 18.976562 C 50.707031 18.957031 50.714844 18.941406 50.695312 18.945312 C 50.671875 18.949219 50.546875 18.960938 50.414062 18.976562 M 40.660156 19 C 40.71875 19.011719 40.808594 19.011719 40.867188 19 C 40.921875 18.992188 40.875 18.984375 40.765625 18.984375 C 40.652344 18.984375 40.605469 18.992188 40.660156 19 M 41.589844 19.003906 C 41.667969 19.011719 41.792969 19.011719 41.867188 19.003906 C 41.945312 18.992188 41.882812 18.988281 41.730469 18.988281 C 41.574219 18.988281 41.511719 18.992188 41.589844 19.003906 M 44.261719 19.003906 C 44.339844 19.011719 44.464844 19.011719 44.539062 19.003906 C 44.617188 18.992188 44.554688 18.988281 44.402344 18.988281 C 44.25 18.988281 44.1875 18.992188 44.261719 19.003906 M 66.339844 19.125 C 66.339844 19.144531 66.320312 19.152344 66.292969 19.136719 C 66.257812 19.117188 66.257812 19.121094 66.289062 19.15625 C 66.3125 19.183594 66.351562 19.195312 66.375 19.179688 C 66.425781 19.148438 66.425781 19.085938 66.375 19.085938 C 66.355469 19.085938 66.339844 19.101562 66.339844 19.125 M 67.453125 19.121094 C 67.453125 19.148438 67.539062 19.195312 67.585938 19.195312 C 67.636719 19.195312 67.589844 19.128906 67.527344 19.113281 C 67.488281 19.101562 67.453125 19.105469 67.453125 19.121094 M 4.304688 19.640625 C 4.246094 19.703125 4.246094 19.707031 4.308594 19.703125 C 4.34375 19.699219 4.375 19.667969 4.375 19.632812 C 4.382812 19.550781 4.382812 19.550781 4.304688 19.640625 M 22.625 23.617188 C 22.625 23.730469 22.628906 23.773438 22.636719 23.71875 C 22.648438 23.664062 22.648438 23.570312 22.636719 23.515625 C 22.628906 23.460938 22.625 23.507812 22.625 23.617188 M 22.625 24.6875 C 22.625 24.796875 22.628906 24.84375 22.636719 24.789062 C 22.648438 24.730469 22.648438 24.640625 22.636719 24.585938 C 22.628906 24.527344 22.625 24.574219 22.625 24.6875 M 5.832031 25.304688 C 5.832031 25.355469 5.929688 25.386719 6.070312 25.382812 L 6.1875 25.378906 L 6.054688 25.351562 C 5.984375 25.339844 5.902344 25.3125 5.878906 25.300781 C 5.855469 25.285156 5.832031 25.285156 5.832031 25.304688 M 17.042969 28.132812 C 17.042969 28.203125 17.0625 28.222656 17.136719 28.222656 C 17.210938 28.222656 17.230469 28.203125 17.230469 28.132812 C 17.230469 28.058594 17.210938 28.039062 17.136719 28.039062 C 17.0625 28.039062 17.042969 28.058594 17.042969 28.132812 M 14.496094 28.988281 C 14.511719 29.011719 14.507812 29.035156 14.484375 29.035156 C 14.464844 29.035156 14.445312 29.050781 14.445312 29.070312 C 14.445312 29.089844 14.46875 29.109375 14.5 29.109375 C 14.554688 29.109375 14.554688 29.019531 14.503906 28.96875 C 14.484375 28.953125 14.484375 28.960938 14.496094 28.988281 M 11.335938 29.042969 C 11.34375 29.070312 11.382812 29.09375 11.421875 29.101562 C 11.484375 29.113281 11.484375 29.109375 11.441406 29.054688 C 11.382812 28.984375 11.316406 28.976562 11.335938 29.042969 "/>
</g>
</g>
</svg>
